<svg xmlns="http://www.w3.org/2000/svg" xmlns:xlink="http://www.w3.org/1999/xlink" data-name="Layer 1" width="909.6699829101562" height="748.219970703125" style=""><rect id="backgroundrect" width="100%" height="100%" x="0" y="0" fill="none" stroke="none" class="" style=""/><defs><linearGradient id="d011afd7-26ae-4e21-bfb4-bf8e8278f380" x1="0.5000364780426025" y1="1" x2="0.5000364780426025" y2="0"><stop offset="0" stop-color="gray" stop-opacity="0.25"/><stop offset="0.54" stop-color="gray" stop-opacity="0.12"/><stop offset="1" stop-color="gray" stop-opacity="0.1"/></linearGradient><linearGradient id="b1272ad6-7fba-4513-8921-9c5943220b72" x1="517.02001953125" y1="824.1099853515625" x2="517.02001953125" y2="75.88999938964844" xlink:href="#d011afd7-26ae-4e21-bfb4-bf8e8278f380"/><linearGradient id="40add73e-d2f5-4381-9257-44e56f6ed5b0" x1="146.8800048828125" y1="637.2100219726562" x2="321.94000244140625" y2="637.2100219726562" xlink:href="#d011afd7-26ae-4e21-bfb4-bf8e8278f380"/><linearGradient id="44499e99-1e42-4717-8565-691e3cc41d41" x1="728.5999755859375" y1="487.0799865722656" x2="728.5999755859375" y2="484.0799865722656" xlink:href="#d011afd7-26ae-4e21-bfb4-bf8e8278f380"/><linearGradient id="a8bd5eea-1591-45ad-a86c-0410ca3890b3" x1="653.3900146484375" y1="341.17999267578125" x2="653.3900146484375" y2="183.0800018310547" xlink:href="#d011afd7-26ae-4e21-bfb4-bf8e8278f380"/></defs><title>hello</title><g class="currentLayer" style=""><title>Layer 1</title><g opacity="0.7" id="svg_1"><path d="M839.8299951171875,284.81000061035155 V273.9100006103516 H785.3599951171875 v50.39 a10.620000000000001,10.620000000000001 0 0 0 10.620000000000001,10.620000000000001 h33.23 a10.620000000000001,10.620000000000001 0 0 0 10.620000000000001,-10.620000000000001 V313.11000061035156 a14.16,14.16 0 1 0 0,-28.33 zm0,22.88 V290.25000061035155 a8.72,8.72 0 1 1 0,17.43 z" fill="url(#d011afd7-26ae-4e21-bfb4-bf8e8278f380)" id="svg_2"/></g><path d="M838.1199951171875,286.51000061035154 a12.93,12.93 0 1 0 12.93,12.93 A12.93,12.93 0 0 0 838.1199951171875,286.51000061035154 zm0,20.89 a8,8 0 1 1 8,-8 A8,8 0 0 1 838.1199951171875,307.4000006103516 z" fill="#3c43bf" id="svg_3"/><path d="M838.1199951171875,286.51000061035154 a12.93,12.93 0 1 0 12.93,12.93 A12.93,12.93 0 0 0 838.1199951171875,286.51000061035154 zm0,20.89 a8,8 0 1 1 8,-8 A8,8 0 0 1 838.1199951171875,307.4000006103516 z" opacity="1" id="svg_4" class="" fill-opacity="1" fill="#fcb917" stroke-opacity="1" stroke="#fcb917"/><path d="M788.34,276.56h49.74a0,0,0,0,1,0,0v46a9.75,9.75,0,0,1-9.75,9.75H798.09a9.75,9.75,0,0,1-9.75-9.75v-46A0,0,0,0,1,788.34,276.56Z" fill="#fcb917" id="svg_5" class="" fill-opacity="1"/><path d="M829.1199951171875,276.56000061035155 v46 a9.7,9.7 0 0 1 -9.7,9.7 h5 a9.7,9.7 0 0 0 9.7,-9.7 v-46 z" opacity="0.1" id="svg_6"/><path d="M798.1199951171875,239.48000061035157 a2.9,2.9 0 0 0 -2.2,1.12 c-0.6500000000000001,1.18 0.53,2.52 1.61,3.33 c2,1.5 4.09,3 5.45,5.07 s1.78,5 0.30000000000000004,7 c-1.9300000000000002,2.62 -6.55,3.19 -7,6.41 c-0.29000000000000004,2.07 1.5,3.84 3.3200000000000003,4.88 c4.48,2.5700000000000003 10.26,3.25 13.5,7.27 c1.34,-2.7600000000000002 4.35,-4.36 7.34,-5 s6.1,-0.6300000000000001 9.14,-1.09 A3.16,3.16 0 0 0 832.1199951171875,267.11000061035156 c0.8500000000000001,-1.7200000000000002 -1.57,-3.79 -0.7300000000000001,-5.51 c0.6400000000000001,-1.32 2.5,-1.21 3.8600000000000003,-1.7400000000000002 c2.22,-0.8600000000000001 3.13,-3.71 2.5,-6 s-2.41,-4.09 -4.28,-5.5600000000000005 c-5,-4 -11.1,-6.29 -17.23,-8 c-2.85,-0.78 -6.2,-2 -9.16,-2.12 S800.9799951171875,239.00000061035155 798.1199951171875,239.48000061035157 z" fill="#eee" id="svg_7"/><line x1="449.05999755859375" y1="344.0199890136719" x2="345.05999755859375" y2="668.02001953125" fill="none" stroke="#e0e0e0" stroke-miterlimit="10" stroke-width="8" id="svg_8"/><g opacity="0.7" id="svg_9"><path d="M529.6399951171875,704.5100006103515 c-12.79,0.7400000000000001 -24.19,11.46 -24.19,11.46 l-5.51,-13.67 l-0.45,0.15000000000000002 c2.6900000000000004,-11.78 57.47,-254.72 2.63,-275.66 c-42.13,-16.09 -86.82,-36 -121.84,-35.26 V334.11000061035156 h49.09 v-2 h38.86 c7.45,-5.32 -3.38,-9 -15.47,-11.27 a11.06,11.06 0 0 0 1.3,-1.83 l62.24,-111.67 s14.32,-23.52 5.11,-34.77 s-22.5,28.64 -22.5,28.64 l-51.13,73.63 S396.1199951171875,221.03000061035158 363.3399951171875,194.28000061035158 A57.47,57.47 0 0 0 351.1199951171875,185.04000061035157 c-6,-4.05 -10.53,-6.16 -12.77,-5.33 l-0.06000000000000001,0 a57.29,57.29 0 0 0 -15.28,-2.08 H318.9199951171875 v-8.39 a65.61,65.61 0 0 0 40.53,-38.4 a73.7,73.7 0 0 0 5.84,-64.17 a4.26,4.26 0 0 0 1.7200000000000002,-0.6000000000000001 c1.85,-1.19 2,-3.8 1.86,-6 a45.56,45.56 0 0 0 -23.12,-35.62 c-5.18,-2.83 -11.12,-4.79 -14.94,-9.29 c-3.2800000000000002,-3.87 -4.66,-9.28 -8.64,-12.44 c-4.72,-3.75 -11.54,-3.11 -17.33,-1.4300000000000002 a63.06,63.06 0 0 0 -18.09,8.54 c-6.26,4.29 -11.92,9.8 -19.13,12.18 c-5.12,1.6900000000000002 -10.68,1.6500000000000001 -15.84,3.24 a26.6,26.6 0 0 0 -17.12,16.69 a34.75,34.75 0 0 0 -1.46,13 a73.22,73.22 0 0 0 -7.35,16.71 l-1.1600000000000001,0.6300000000000001 l1.12,-0.5 a73.62,73.62 0 0 0 20.74,75.09 a65.55,65.55 0 0 0 31.45,22.32 v10.15 a77.33,77.33 0 0 0 -25.1,10.28 h0 s-0.6500000000000001,0.4 -1.77,1.1600000000000001 l-0.3400000000000001,0.23 c-7.57,5.14 -32.93,23.9 -32.07,44.18 q0,1.17 0,2.35 a78,78 0 0 0 -2.09,17.88 V402.6500006103516 A72.28,72.28 0 0 0 232.1199951171875,447.48000061035157 c-21.34,4.78 -34.94,12 -34.94,20.11 a6.55,6.55 0 0 1 0,2 c0,14.4 43,26.08 96.13,26.08 c6.42,0 12.69,-0.17 18.76,-0.5 l60,48.56 L275.9699951171875,698.2100006103516 s-31.7,24.54 -7.16,32.73 s74.66,14.32 74.66,14.32 s8.18,-14.32 -3.07,-20.45 s-26.59,-3.07 -26.59,-3.07 l2,-12.27 s166.7,-143.18 131.93,-192.26 c-6.65,-9.39 -13.3,-19.08 -20,-28.62 l26.24,2.39 l6,224.76 l0.7500000000000001,-0.24000000000000002 c-1.5,4.42 -12.1,37.74 11.4,32.1 c25.16,-6 70.93,-27.33 70.93,-27.33 S542.4299951171874,703.7700006103515 529.6399951171875,704.5100006103515 zM429.3699951171875,317.7700006103516 l-49.09,-14.25 v-42 L433.6299951171875,318.11000061035156 C431.0099951171875,317.9000006103516 429.3699951171875,317.7700006103516 429.3699951171875,317.7700006103516 z" fill="url(#b1272ad6-7fba-4513-8921-9c5943220b72)" id="svg_10"/></g><circle cx="298.05999755859375" cy="99.0199966430664" r="72" id="svg_11"/><path d="M380.05999511718755,264.0200006103516 l54.95,58.33 a10.73,10.73 0 0 0 17.19,-2.13 l60.86,-109.19 l-17,-6 l-50,72 s-93.87,-97.84 -107,-93 S380.05999511718755,264.0200006103516 380.05999511718755,264.0200006103516 z" fill="#f99613" id="svg_12" class="" fill-opacity="1"/><line x1="275.05999755859375" y1="466.0199890136719" x2="194.05999755859375" y2="676.02001953125" fill="none" stroke="#bdbdbd" stroke-miterlimit="10" stroke-width="5" id="svg_13"/><line x1="315.05999755859375" y1="466.0199890136719" x2="396.05999755859375" y2="676.02001953125" fill="none" stroke="#bdbdbd" stroke-miterlimit="10" stroke-width="5" id="svg_14"/><ellipse cx="295.05999755859375" cy="467.5199890136719" rx="94" ry="25.5" fill="#b84733" id="svg_15"/><ellipse cx="295.05999755859375" cy="465.5199890136719" rx="94" ry="25.5" fill="#f55f44" id="svg_16"/><line x1="255.5" y1="512.1500244140625" x2="344.19000244140625" y2="539.47998046875" fill="none" stroke="#bdbdbd" stroke-miterlimit="10" stroke-width="5" id="svg_17"/><line x1="334.6099853515625" y1="512.1500244140625" x2="245.9199981689453" y2="539.47998046875" fill="none" stroke="#bdbdbd" stroke-miterlimit="10" stroke-width="5" id="svg_18"/><path d="M296.15,182h27.91a56,56,0,0,1,56,56V386a0,0,0,0,1,0,0h-160a0,0,0,0,1,0,0V258.11A76.09,76.09,0,0,1,296.15,182Z" fill="#fcb917" id="svg_19" class="" fill-opacity="1"/><path d="M220.06,386h160a0,0,0,0,1,0,0v87a0,0,0,0,1,0,0h-89a71,71,0,0,1-71-71V386A0,0,0,0,1,220.06,386Z" fill="#39447a" id="svg_20"/><path d="M222.21999511718752,242.06000061035155 l97.84,93 h108 v-14 l-93,-27 l-79.55,-98.24 S219.3799951171875,218.11000061035156 222.21999511718752,242.06000061035155 z" opacity="0.05" id="svg_21"/><path d="M222.21999511718752,240.06000061035155 l97.84,93 h108 v-14 l-93,-27 l-79.55,-98.24 S219.3799951171875,216.11000061035156 222.21999511718752,240.06000061035155 z" fill="#fcb917" id="svg_22" class="" fill-opacity="1" stroke-opacity="1" stroke="#f99613"/><path d="M428.05999511718755,319.0200006103516 s52,4 38,14 h-38 z" fill="#fda57d" id="svg_23"/><path d="M496.05999511718755,205.0200006103516 s13,-39 22,-28 s-5,34 -5,34 z" fill="#fda57d" id="svg_24" class=""/><polygon points="220.06 386.02 220.06 390.68 380.06 391.02 380.06 386.02 220.06 386.02" opacity="0.05" id="svg_25"/><path d="M344.5199951171875,478.5600006103516 L452.1199951171875,488.37000061035155 L457.9799951171875,708.1100006103516 l38.53,-12.54 s57.63,-249 2.68,-270 s-114.35,-48.63 -149.81,-26.1 S344.5199951171875,478.5600006103516 344.5199951171875,478.5600006103516 z" fill="#39447a" id="svg_26"/><path d="M351.0599951171875,411.0200006103516 s59,30 67,64 " opacity="0.1" id="svg_27"/><path d="M288.0599951171875,472.02000061035153 l84,68 l-94,151 l39,11 s163,-140 129,-188 s-68,-104 -110,-105 S288.0599951171875,472.02000061035153 288.0599951171875,472.02000061035153 z" fill="#39447a" id="svg_28"/><polygon points="420.06 251.02 441.06 287.02 446.06 277.02 420.06 251.02" opacity="0.05" id="svg_29"/><path d="M278.0599951171875,691.0200006103515 s-31,24 -7,32 s73,14 73,14 s8,-14 -3,-20 s-26,-3 -26,-3 l2,-12 z" fill="#333" id="svg_30"/><path d="M458.8799951171875,707.4300006103516 s-13.620000000000001,37.76 11,31.86 s69.36,-26.73 69.36,-26.73 s-0.6100000000000001,-16.11 -13.12,-15.39 s-23.65,11.2 -23.65,11.2 l-5.39,-13.37 z" fill="#333" id="svg_31"/><rect x="280.05999755859375" y="147.02000427246094" width="40" height="60" rx="20" ry="20" fill="#fda57d" id="svg_32"/><path d="M300.0599951171875,149.02000061035156 a20,20 0 0 0 -20,20 v6.8 a64,64 0 0 0 40,0 v-6.8 A20,20 0 0 0 300.0599951171875,149.02000061035156 z" opacity="0.05" id="svg_33"/><circle cx="300.05999755859375" cy="113.0199966430664" r="64" fill="#fda57d" id="svg_34"/><path d="M236.0599951171875,110.11000061035156 s16,4.12 25,-14.06 s16,-28.1 53,-17.36 s44.44,12.06 46.22,1.9 c1.22,-6.94 -11.94,-23.81 -20.4,-33.79 c-4.12,-4.87 -10.85,-7.78 -18,-7.78 H280.0599951171875 l-25,11.57 l-19,16.53 l-4,22.32 z" opacity="0.05" id="svg_35"/><path d="M236.0599951171875,108.11000061035156 s16,4.12 25,-14.06 s16,-28.1 53,-17.36 s44.44,12.06 46.22,1.9 c1.22,-6.94 -11.94,-23.81 -20.4,-33.79 c-4.12,-4.87 -10.85,-7.78 -18,-7.78 H280.0599951171875 l-25,11.57 l-19,16.53 l-4,22.32 z" id="svg_36"/><ellipse cx="242.55999755859375" cy="108.0199966430664" rx="6.5" ry="13" fill="#fda57d" id="svg_37"/><path d="M237.90999511718752,74.57000061035157 c-1.48,-8.37 -2.94,-17.16 -0.24000000000000002,-25.22 a26,26 0 0 1 16.74,-16.32 c5,-1.55 10.48,-1.52 15.49,-3.17 c7.05,-2.3200000000000003 12.58,-7.71 18.71,-11.91 a61.66,61.66 0 0 1 17.69,-8.35 c5.66,-1.6400000000000001 12.33,-2.27 16.95,1.4 c3.88,3.09 5.23,8.38 8.44,12.16 c3.74,4.4 9.54,6.3100000000000005 14.61,9.08 A44.54,44.54 0 0 1 368.8899951171875,67.11000061035156 c0.17,2.15 0,4.7 -1.82,5.86 a6.48,6.48 0 0 1 -3.6500000000000004,0.6700000000000002 c-25.58,-0.37000000000000005 -51.19,-0.7300000000000001 -76.66,-3.08 c-7.92,-0.7300000000000001 -15.85,-1.6500000000000001 -23.8,-1.35 a77.85,77.85 0 0 0 -35,9.89 " id="svg_38"/><g opacity="0.7" id="svg_39"><path d="M173.9999951171875,518.2600006103515 a34,34 0 0 0 -13.47,-36 c-3,-2 -6.28,-3.5300000000000002 -9,-5.84 c-4.5600000000000005,-3.84 -7.17,-9.51 -9.05,-15.18 c-4.52,-13.58 -5.95,-28.81 -13.88,-41.08 c-7.22,-11.17 -21.27,-14.44 -33.74,-15.55 c-4.54,-0.41000000000000003 -9.31,-0.6200000000000001 -13.46,1.26 c-6.95,3.14 -10.26,11.35 -10.57,19 s1.6700000000000002,15.14 2.17,22.74 s-0.8600000000000001,16 -6.48,21.14 s-13.65,5.77 -21.1,6.8 a139.71,139.71 0 0 0 -28.59,7.1 c-7.77,2.83 -16.42,7.93 -16.79,16.19 c-0.30000000000000004,6.75 5.15,12.14 9.24,17.51 c7.65,10 11.47,23.29 8.88,35.64 c-2.64,12.57 -11.47,23.36 -13.08,36.11 c-0.41000000000000003,3.24 -0.29000000000000004,6.68 1.28,9.54 a17.45,17.45 0 0 0 4.83,5.11 c4.8,3.71 10.16,6.69 14.7,10.71 c9.47,8.39 14.6,20.56 18.55,32.58 c0.38000000000000006,1.1600000000000001 0.7200000000000001,2.33 1.08,3.49 h-9.31 a34.53,34.53 0 0 0 -34.43,34.43 h0 a34.53,34.53 0 0 0 34.43,34.43 h93 a34.53,34.53 0 0 0 34.43,-34.43 h0 A34.53,34.53 0 0 0 129.1199951171875,649.4700006103516 H103.65999511718749 c6,-8.07 12.32,-15.65 21.62,-18.76 s20.55,-1.28 27.85,-7.77 c3.56,-3.16 5.45,-7.84 6.32,-12.52 a37.29,37.29 0 0 0 -4.08,-24.76 c-2.93,-5.23 -7.21,-10 -8.14,-15.9 c-0.79,-5.06 1,-10.19 3.51,-14.68 C157.76999511718748,542.2900006103515 170.20999511718747,532.3600006103516 173.9999951171875,518.2600006103515 z" fill="url(#40add73e-d2f5-4381-9257-44e56f6ed5b0)" id="svg_40"/></g><path d="M94.4899951171875,412.06000061035155 c-4.32,-0.39000000000000007 -8.86,-0.5900000000000001 -12.82,1.2 c-6.61,3 -9.77,10.81 -10.07,18.06 s1.59,14.41 2.06,21.66 s-0.8200000000000001,15.22 -6.17,20.13 s-13,5.49 -20.09,6.47 a133,133 0 0 0 -27.23,6.76 c-7.4,2.6900000000000004 -15.64,7.5600000000000005 -16,15.42 c-0.28,6.43 4.9,11.56 8.8,16.67 c7.29,9.57 10.92,22.18 8.45,33.94 c-2.52,12 -10.93,22.25 -12.45,34.39 c-0.39000000000000007,3.08 -0.28,6.36 1.22,9.08 a16.61,16.61 0 0 0 4.6,4.87 c4.57,3.5300000000000002 9.67,6.37 14,10.2 c9,8 13.9,19.58 17.66,31 A251.28,251.28 0 0 1 55.1199951171875,676.3500006103516 c7.77,-5 17.81,-4.92 26.1,-9 c17.65,-8.65 23.59,-33.73 42.23,-40 c8.82,-2.95 19.57,-1.22 26.52,-7.4 c3.39,-3 5.19,-7.46 6,-11.92 A35.51,35.51 0 0 0 152.1199951171875,584.5000006103515 c-2.79,-5 -6.87,-9.5 -7.76,-15.14 c-0.7600000000000001,-4.82 1,-9.7 3.34,-14 c6.7,-12.18 18.55,-21.63 22.16,-35.06 a32.37,32.37 0 0 0 -12.83,-34.32 c-2.83,-1.9100000000000001 -6,-3.36 -8.6,-5.5600000000000005 c-4.35,-3.66 -6.82,-9.06 -8.620000000000001,-14.45 c-4.3100000000000005,-12.93 -5.67,-27.44 -13.22,-39.12 C119.7399951171875,416.23000061035157 106.35999511718751,413.11000061035156 94.4899951171875,412.06000061035155 z" fill="#4db6ac" id="svg_41"/><path d="M94.35999511718751,412.50000061035155 S110.75999511718749,632.1100006103516 68.1199951171875,669.8600006103516 " fill="none" stroke="#535461" stroke-miterlimit="10" opacity="0.6" id="svg_42"/><rect x="5.849999904632568" y="645.27001953125" width="154.08999633789062" height="65.56999969482422" rx="32.779998779296875" ry="32.779998779296875" fill="#fcb917" id="svg_43" class="" fill-opacity="1"/><path d="M4.209995117187503,497.74000061035156 s41.91,-4.890000000000001 93.08,26.24 " fill="none" stroke="#535461" stroke-miterlimit="10" opacity="0.6" id="svg_44"/><path d="M96.4699951171875,550.1900006103516 s23.29,-38.52 73.29,-45.89 " fill="none" stroke="#535461" stroke-miterlimit="10" opacity="0.6" id="svg_45"/><path d="M8.309995117187498,587.1100006103516 s58.09,-9.85 84.78,6.55 " fill="none" stroke="#535461" stroke-miterlimit="10" opacity="0.6" id="svg_46"/><path d="M89.7799951171875,616.1600006103515 s30.41,-13.8 64.62,-2.59 " fill="none" stroke="#535461" stroke-miterlimit="10" opacity="0.6" id="svg_47"/><path d="M581.7199951171875,411.19000061035155 a1.5,1.5 0 0 0 0,-3 a1.5,1.5 0 0 0 0,3 z" fill="url(#44499e99-1e42-4717-8565-691e3cc41d41)" id="svg_48"/><line x1="801.8200073242188" y1="344.0199890136719" x2="905.8200073242188" y2="714.1099853515625" fill="none" stroke="#e0e0e0" stroke-miterlimit="10" stroke-width="8" id="svg_49"/><rect x="344.6300048828125" y="333.17999267578125" width="561.6099853515625" height="21.8799991607666" fill="#e0e0e0" id="svg_50"/><rect x="483.05999755859375" y="328.0199890136719" width="92" height="13" rx="6.5" ry="6.5" fill="#535461" id="svg_51"/><g opacity="0.7" id="svg_52"><rect x="539.0599975585938" y="183.0800018310547" width="228.66000366210938" height="158.10000610351562" rx="28.219999313354492" ry="28.219999313354492" fill="url(#a8bd5eea-1591-45ad-a86c-0410ca3890b3)" id="svg_53"/></g><rect x="543.1300048828125" y="185.99000549316406" width="216.61000061035156" height="155.17999267578125" rx="26.84000015258789" ry="26.84000015258789" fill="#3e3f49" id="svg_54"/><rect x="546.1300048828125" y="185.99000549316406" width="216.61000061035156" height="155.17999267578125" rx="26.84000015258789" ry="26.84000015258789" fill="#535461" id="svg_55"/><circle cx="664.5599975585938" cy="262.5199890136719" r="7" fill="#e0e0e0" id="svg_56"/></g></svg>