<svg xmlns="http://www.w3.org/2000/svg" xmlns:xlink="http://www.w3.org/1999/xlink" data-name="Layer 1" width="938" height="435.2699890136719" style=""><rect id="backgroundrect" width="100%" height="100%" x="0" y="0" fill="none" stroke="none"/><defs><linearGradient id="8486a354-4ded-4b3d-9732-2a2c7667bec2" x1="0.5" y1="1" x2="0.5" y2="0"><stop offset="0" stop-color="gray" stop-opacity="0.25"/><stop offset="0.54" stop-color="gray" stop-opacity="0.12"/><stop offset="1" stop-color="gray" stop-opacity="0.1"/></linearGradient><linearGradient id="3853e85e-ee5a-4f32-bbd3-7efdaca8fe8a" x1="722.6099853515625" y1="411.260009765625" x2="722.6099853515625" y2="295.8699951171875" xlink:href="#8486a354-4ded-4b3d-9732-2a2c7667bec2"/><linearGradient id="e85ddcbd-1b93-4455-9e1f-7c80d0490ef6" x1="832.2999877929688" y1="300.6099853515625" x2="832.2999877929688" y2="232.85000610351562" xlink:href="#8486a354-4ded-4b3d-9732-2a2c7667bec2"/><linearGradient id="7e77ab0e-bbf3-4bc7-8363-6b91148be3a0" x1="938.3300170898438" y1="372.8900146484375" x2="938.3300170898438" y2="303.1700134277344" xlink:href="#8486a354-4ded-4b3d-9732-2a2c7667bec2"/><linearGradient id="e949ee8b-be62-4c37-a074-25d4b153f007" x1="843.27001953125" y1="475.4599914550781" x2="843.27001953125" y2="409" xlink:href="#8486a354-4ded-4b3d-9732-2a2c7667bec2"/><linearGradient id="3aaaa841-8400-43be-a827-94f5c76752eb" x1="754.5999755859375" y1="503.32000732421875" x2="754.5999755859375" y2="434.1600036621094" xlink:href="#8486a354-4ded-4b3d-9732-2a2c7667bec2"/><linearGradient id="a635f348-18db-43de-86ad-53f13a869e1a" x1="754.5999755859375" y1="610.260009765625" x2="754.5999755859375" y2="541.0999755859375" xlink:href="#8486a354-4ded-4b3d-9732-2a2c7667bec2"/><linearGradient id="cb024692-e676-4733-81ed-cdcd66700928" x1="906.3400268554688" y1="668.1199951171875" x2="906.3400268554688" y2="598.4199829101562" xlink:href="#8486a354-4ded-4b3d-9732-2a2c7667bec2"/><linearGradient id="38df677c-957a-4721-8e86-d40d682183d9" x1="1002.3099975585938" y1="597.3900146484375" x2="1002.3099975585938" y2="455.260009765625" xlink:href="#8486a354-4ded-4b3d-9732-2a2c7667bec2"/><linearGradient id="9cd64173-10f6-4cb0-8058-bf8fe6a2764b" x1="265.80999755859375" y1="579.260009765625" x2="265.80999755859375" y2="482.510009765625" gradientTransform="translate(-164.4 122.26) rotate(-19.56)" xlink:href="#8486a354-4ded-4b3d-9732-2a2c7667bec2"/></defs><title>email capture</title><g class="currentLayer" style=""><title>Layer 1</title><g opacity="0.5" id="svg_1" class=""><path d="M144.69,162.29999389648435 H342 V95.14999389648438 H144.69 C65.11000000000001,95.14999389648438 0,160.6199938964844 0,240.64999389648438 h0 c0,80 65.11,145.5 144.69,145.5 H342 V318.9999938964844 H144.69 a77.1,77.1 0 0 1 -55,-23.07 a78.05,78.05 0 0 1 0,-110.55 A77.1,77.1 0 0 1 144.69,162.29999389648435 z" fill="url(#8486a354-4ded-4b3d-9732-2a2c7667bec2)" id="svg_2"/></g><path d="M91.18,294.9699938964844 A77,77 0 0 1 145.5,163.64999389648438 h121 v-66 h-121 c-78.65,0 -143,64.35 -143,143 h0 c0,78.65 64.35,143 143,143 h121 v-66 h-121 A76.41,76.41 0 0 1 91.18,294.9699938964844 z" fill="#535461" id="svg_3" class=""/><rect x="265.5" y="317.6499938964844" width="75" height="66" fill="#e0e0e0" id="svg_4"/><rect x="265.5" y="97.6500015258789" width="75" height="66" fill="#e0e0e0" id="svg_5"/><g opacity="0.5" id="svg_6" class="" fill-opacity="1" fill="#fbb814"><path d="M608,149.40999389648437 c25.3,0 37,-13.58 37,-31.78 c0,-31.78 -25.61,-54.61 -57.39,-54.61 a57.7,57.7 0 0 0 0,115.39 a56.74,56.74 0 0 0 32.66,-10.69 a4.36,4.36 0 0 0 1.78,-2.8600000000000003 a2.85,2.85 0 0 0 -0.8900000000000001,-2.66 a3.62,3.62 0 0 0 -5.27,0.6200000000000001 c-2.1,2.7600000000000002 -8.37,7.43 -26.92,7.85 c-28.07,0.6400000000000001 -51.56,-21.71 -51.65,-49.79 c-0.09000000000000002,-27.85 22.78,-49.84 50.29,-50.15 s49.67,19.13 49.67,46.28 c0,17.28 -12,25.3 -26.53,25 c-4.63,0.31000000000000005 -5.55,-1.54 -4.94,-8 c0.51,-5.32 5.59,-27.5 7.39,-35.26 a4.29,4.29 0 0 0 -4.32,-5.3 l-0.31000000000000005,0 a4.28,4.28 0 0 0 -3.74,3.75 a32.62,32.62 0 0 0 -0.26,3.7600000000000002 c-2.7800000000000002,-5.55 -9.26,-9.870000000000001 -17,-10.18 c-16.35,0.31000000000000005 -30.54,15.12 -31.16,36.72 c0,14.5 7.71,22.83 21,22.83 c9.26,0 16,-5.55 19.75,-10.8 C597.18,139.53999389648436 596.87,148.78999389648436 608,149.40999389648437 zm-29.31,-6.48 c-8.33,0 -13.27,-6.17 -13.27,-16 c0,-17 11.42,-27.77 22.21,-27.77 c9.56,0 13.27,6.48 13.58,15.12 C601.19,128.14999389648438 592.24,142.92999389648435 578.67,142.92999389648435 z" fill="#fbb814" id="svg_7"/></g><path d="M607.07,148.14999389648438 c24.18,0 35.38,-13 35.38,-30.37 c0,-30.37 -24.47,-52.19 -54.84,-52.19 a55.14,55.14 0 0 0 0,110.28 a54.22,54.22 0 0 0 31.21,-10.21 a4.16,4.16 0 0 0 1.71,-2.73 a2.72,2.72 0 0 0 -0.8500000000000001,-2.54 a3.46,3.46 0 0 0 -5,0.5900000000000001 c-2,2.63 -8,7.1 -25.73,7.5 c-26.83,0.6100000000000001 -49.27,-20.75 -49.36,-47.59 c-0.09000000000000002,-26.61 21.77,-47.63 48.06,-47.92 s47.47,18.28 47.47,44.23 c0,16.51 -11.5,24.18 -25.36,23.88 c-4.42,0.29000000000000004 -5.3100000000000005,-1.47 -4.72,-7.67 c0.48000000000000004,-5.09 5.34,-26.28 7.07,-33.69 a4.1,4.1 0 0 0 -4.13,-5.06 l-0.30000000000000004,0 a4.09,4.09 0 0 0 -3.5700000000000003,3.59 a31.17,31.17 0 0 0 -0.25,3.6 c-2.6500000000000004,-5.3100000000000005 -8.85,-9.44 -16.22,-9.73 c-15.63,0.29000000000000004 -29.19,14.45 -29.78,35.09 c0,13.86 7.37,21.82 20.05,21.82 c8.85,0 15.33,-5.3100000000000005 18.87,-10.32 C596.75,138.6999938964844 596.46,147.54999389648435 607.07,148.14999389648438 zm-28,-6.19 c-8,0 -12.68,-5.9 -12.68,-15.33 c0,-16.22 10.91,-26.54 21.23,-26.54 c9.14,0 12.68,6.19 13,14.45 C600.59,127.78999389648436 592,141.9499938964844 579.06,141.9499938964844 z" fill="#fbb814" id="svg_8" class="" fill-opacity="1"/><g opacity="0.5" id="svg_9" class="" fill-opacity="1" fill="#fbb814"><path d="M709.26,50.72999389648436 c14.86,0 21.74,-8 21.74,-18.66 c0,-18.66 -15,-32.07 -33.7,-32.07 a33.88,33.88 0 0 0 0,67.76 a33.32,33.32 0 0 0 19.18,-6.28 a2.56,2.56 0 0 0 1,-1.6800000000000002 a1.6700000000000002,1.6700000000000002 0 0 0 -0.52,-1.56 a2.13,2.13 0 0 0 -3.1,0.36000000000000004 c-1.23,1.62 -4.92,4.36 -15.81,4.61 a29.54,29.54 0 0 1 -30.33,-29.24 c-0.05000000000000001,-16.35 13.38,-29.27 29.53,-29.45 s29.17,11.23 29.17,27.18 c0,10.15 -7.07,14.86 -15.58,14.68 c-2.72,0.18000000000000002 -3.26,-0.91 -2.9,-4.71 c0.30000000000000004,-3.12 3.2800000000000002,-16.15 4.34,-20.7 a2.52,2.52 0 0 0 -2.54,-3.11 l-0.18000000000000002,0 a2.51,2.51 0 0 0 -2.19,2.2 a19.15,19.15 0 0 0 -0.15000000000000002,2.21 a11.64,11.64 0 0 0 -10,-6 c-9.6,0.18000000000000002 -17.94,8.88 -18.3,21.56 c0,8.52 4.53,13.41 12.32,13.41 a14.37,14.37 0 0 0 11.6,-6.34 S702.73,50.3699938964844 709.26,50.72999389648436 zM692,46.92999389648435 c-4.890000000000001,0 -7.79,-3.62 -7.79,-9.42 c0,-10 6.7,-16.31 13,-16.31 c5.62,0 7.79,3.8 8,8.88 C705.27,38.22999389648436 700,46.92999389648435 692,46.92999389648435 z" fill="#fbb814" id="svg_10"/></g><path d="M708.65,49.87999389648439 c14.1,0 20.64,-7.57 20.64,-17.72 c0,-17.72 -14.28,-30.44 -32,-30.44 a32.16,32.16 0 0 0 0,64.33 a31.63,31.63 0 0 0 18.21,-6 a2.43,2.43 0 0 0 1,-1.59 a1.59,1.59 0 0 0 -0.49000000000000005,-1.48 a2,2 0 0 0 -2.94,0.35000000000000003 c-1.17,1.54 -4.67,4.14 -15,4.38 a28,28 0 0 1 -28.79,-27.76 c-0.05000000000000001,-15.52 12.7,-27.78 28,-28 S725,16.679993896484376 725,31.81999389648439 c0,9.63 -6.71,14.1 -14.79,13.93 c-2.58,0.17 -3.1,-0.8600000000000001 -2.75,-4.47 c0.28,-3 3.12,-15.33 4.12,-19.65 a2.39,2.39 0 0 0 -2.41,-3 H709 a2.38,2.38 0 0 0 -2.08,2.09 a18.18,18.18 0 0 0 -0.15000000000000002,2.1 A11,11 0 0 0 697.3,17.149993896484375 c-9.12,0.17 -17,8.43 -17.37,20.47 c0,8.08 4.3,12.73 11.7,12.73 a13.64,13.64 0 0 0 11,-6 S702.46,49.52999389648437 708.65,49.87999389648439 zm-16.34,-3.6100000000000003 c-4.640000000000001,0 -7.4,-3.44 -7.4,-8.94 c0,-9.46 6.36,-15.48 12.38,-15.48 c5.33,0 7.4,3.6100000000000003 7.57,8.43 C704.87,38.00999389648439 699.88,46.26999389648438 692.31,46.26999389648438 z" fill="#fbb814" id="svg_11" class="" fill-opacity="1"/><g opacity="0.5" id="svg_12" class="" fill-opacity="1" fill="#fbb814"><path d="M815.63,122.50999389648439 c15.28,0 22.37,-8.2 22.37,-19.2 c0,-19.2 -15.47,-33 -34.67,-33 a34.86,34.86 0 0 0 0,69.71 a34.28,34.28 0 0 0 19.73,-6.46 a2.63,2.63 0 0 0 1.08,-1.73 a1.7200000000000002,1.7200000000000002 0 0 0 -0.54,-1.61 a2.19,2.19 0 0 0 -3.18,0.38000000000000006 c-1.27,1.6600000000000001 -5.06,4.49 -16.27,4.74 a30.39,30.39 0 0 1 -31.21,-30.08 c-0.06000000000000001,-16.82 13.76,-30.11 30.38,-30.3 s30,11.56 30,28 c0,10.44 -7.27,15.28 -16,15.1 c-2.8,0.19000000000000003 -3.36,-0.93 -3,-4.85 c0.31000000000000005,-3.21 3.38,-16.61 4.47,-21.3 a2.59,2.59 0 0 0 -2.6100000000000003,-3.2 l-0.19000000000000003,0 a2.58,2.58 0 0 0 -2.26,2.27 a19.71,19.71 0 0 0 -0.16000000000000003,2.27 a12,12 0 0 0 -10.25,-6.15 c-9.88,0.19000000000000003 -18.45,9.13 -18.83,22.18 c0,8.76 4.66,13.79 12.68,13.79 a14.78,14.78 0 0 0 11.93,-6.52 S808.92,122.14999389648438 815.63,122.50999389648439 zm-17.71,-3.91 c-5,0 -8,-3.73 -8,-9.69 c0,-10.25 6.9,-16.78 13.42,-16.78 c5.78,0 8,3.91 8.2,9.13 C811.53,109.64999389648438 806.13,118.59999389648436 797.92,118.59999389648436 z" fill="#fbb814" id="svg_13"/></g><path d="M814.68,121.14999389648438 c14.1,0 20.64,-7.57 20.64,-17.72 c0,-17.72 -14.28,-30.44 -32,-30.44 a32.16,32.16 0 0 0 0,64.33 a31.63,31.63 0 0 0 18.21,-6 a2.43,2.43 0 0 0 1,-1.59 a1.59,1.59 0 0 0 -0.49000000000000005,-1.48 a2,2 0 0 0 -2.94,0.35000000000000003 c-1.17,1.54 -4.67,4.14 -15,4.38 a28,28 0 0 1 -28.79,-27.76 c-0.05000000000000001,-15.52 12.7,-27.78 28,-28 S831,87.97999389648436 831,103.14999389648438 c0,9.63 -6.71,14.1 -14.79,13.93 c-2.58,0.17 -3.1,-0.8600000000000001 -2.75,-4.47 c0.28,-3 3.12,-15.33 4.12,-19.65 a2.39,2.39 0 0 0 -2.41,-3 H815 a2.38,2.38 0 0 0 -2.08,2.09 a18.18,18.18 0 0 0 -0.15000000000000002,2.1 a11,11 0 0 0 -9.46,-5.68 c-9.12,0.17 -17,8.43 -17.37,20.47 c0,8.08 4.3,12.73 11.7,12.73 a13.64,13.64 0 0 0 11,-6 S808.49,120.82999389648438 814.68,121.14999389648438 zm-16.34,-3.6100000000000003 c-4.640000000000001,0 -7.4,-3.44 -7.4,-8.94 c0,-9.46 6.36,-15.48 12.38,-15.48 c5.33,0 7.4,3.6100000000000003 7.57,8.43 C810.9,109.3099938964844 805.91,117.5599938964844 798.34,117.5599938964844 z" fill="#fbb814" id="svg_14" class="" fill-opacity="1"/><g opacity="0.5" id="svg_15" class="" fill-opacity="1" fill="#fbb814"><path d="M720,225.90999389648437 c14.57,0 21.32,-7.82 21.32,-18.3 c0,-18.3 -14.75,-31.45 -33.05,-31.45 a33.23,33.23 0 0 0 0,66.46 a32.68,32.68 0 0 0 18.81,-6.16 a2.51,2.51 0 0 0 1,-1.6500000000000001 a1.6400000000000001,1.6400000000000001 0 0 0 -0.51,-1.53 a2.09,2.09 0 0 0 -3,0.36000000000000004 c-1.21,1.59 -4.82,4.28 -15.51,4.52 a29,29 0 0 1 -29.75,-28.68 c-0.05000000000000001,-16 13.12,-28.71 29,-28.88 s28.61,11 28.61,26.66 c0,10 -6.93,14.57 -15.28,14.39 c-2.67,0.18000000000000002 -3.2,-0.8900000000000001 -2.84,-4.62 C719,213.95999389648438 722,201.14999389648438 723,196.71999389648437 a2.47,2.47 0 0 0 -2.49,-3.05 h-0.18000000000000002 a2.46,2.46 0 0 0 -2.15,2.16 a18.79,18.79 0 0 0 -0.15000000000000002,2.17 a11.41,11.41 0 0 0 -9.77,-5.86 c-9.42,0.18000000000000002 -17.59,8.71 -17.95,21.15 c0,8.35 4.44,13.15 12.08,13.15 a14.09,14.09 0 0 0 11.37,-6.22 S713.6,225.54999389648435 720,225.90999389648437 zM703.11,222.14999389648438 c-4.8,0 -7.640000000000001,-3.55 -7.640000000000001,-9.24 c0,-9.77 6.58,-16 12.79,-16 c5.51,0 7.640000000000001,3.73 7.82,8.71 C716.09,213.64999389648438 710.93,222.14999389648438 703.11,222.14999389648438 z" fill="#fbb814" id="svg_16"/></g><path d="M719.62,225.3799938964844 c14.1,0 20.64,-7.57 20.64,-17.72 c0,-17.72 -14.28,-30.44 -32,-30.44 a32.16,32.16 0 0 0 0,64.33 a31.63,31.63 0 0 0 18.21,-6 a2.43,2.43 0 0 0 1,-1.59 a1.59,1.59 0 0 0 -0.49000000000000005,-1.48 a2,2 0 0 0 -2.94,0.35000000000000003 c-1.17,1.54 -4.67,4.14 -15,4.38 a28,28 0 0 1 -28.79,-27.76 c-0.05000000000000001,-15.52 12.7,-27.78 28,-28 S736,192.14999389648438 736,207.3199938964844 c0,9.63 -6.71,14.1 -14.79,13.93 c-2.58,0.17 -3.1,-0.8600000000000001 -2.75,-4.47 c0.28,-3 3.12,-15.33 4.12,-19.65 a2.39,2.39 0 0 0 -2.41,-3 H720 a2.38,2.38 0 0 0 -2.08,2.09 a18.18,18.18 0 0 0 -0.15000000000000002,2.1 a11,11 0 0 0 -9.46,-5.68 c-9.12,0.17 -17,8.43 -17.37,20.47 c0,8.08 4.3,12.73 11.7,12.73 a13.64,13.64 0 0 0 11,-6 S713.43,225.02999389648437 719.62,225.3799938964844 zm-16.34,-3.6100000000000003 c-4.640000000000001,0 -7.4,-3.44 -7.4,-8.94 c0,-9.46 6.36,-15.48 12.38,-15.48 c5.33,0 7.4,3.6100000000000003 7.57,8.43 C715.84,213.5099938964844 710.85,221.7599938964844 703.28,221.7599938964844 z" fill="#fbb814" id="svg_17" class="" fill-opacity="1"/><g opacity="0.5" id="svg_18" class="" fill-opacity="1" fill="#fbb814"><path d="M631.81,253.08999389648437 c15.16,0 22.19,-8.14 22.19,-19 c0,-19 -15.35,-32.73 -34.4,-32.73 a34.58,34.58 0 0 0 0,69.16 a34,34 0 0 0 19.57,-6.41 a2.6100000000000003,2.6100000000000003 0 0 0 1.07,-1.71 a1.71,1.71 0 0 0 -0.53,-1.59 a2.17,2.17 0 0 0 -3.16,0.37000000000000005 c-1.26,1.6500000000000001 -5,4.45 -16.14,4.7 a30.15,30.15 0 0 1 -31,-29.84 c-0.05000000000000001,-16.69 13.65,-29.87 30.14,-30.06 s29.77,11.47 29.77,27.74 c0,10.36 -7.21,15.16 -15.9,15 c-2.77,0.18000000000000002 -3.33,-0.92 -3,-4.8100000000000005 c0.30000000000000004,-3.19 3.35,-16.48 4.43,-21.13 a2.5700000000000003,2.5700000000000003 0 0 0 -2.59,-3.18 l-0.19000000000000003,0 a2.56,2.56 0 0 0 -2.24,2.25 a19.55,19.55 0 0 0 -0.16000000000000003,2.26 a11.88,11.88 0 0 0 -10.17,-6.1 c-9.8,0.18000000000000002 -18.31,9.06 -18.68,22 c0,8.69 4.62,13.68 12.57,13.68 A14.67,14.67 0 0 0 625.34,247.14999389648438 S625.15,252.71999389648437 631.81,253.08999389648437 zm-17.57,-3.88 c-5,0 -8,-3.7 -8,-9.620000000000001 c0,-10.17 6.84,-16.64 13.31,-16.64 c5.73,0 8,3.88 8.14,9.06 C627.74,240.32999389648438 622.38,249.1999938964844 614.24,249.1999938964844 z" fill="#fbb814" id="svg_19"/></g><path d="M631,251.8799938964844 c14.1,0 20.64,-7.57 20.64,-17.72 c0,-17.72 -14.28,-30.44 -32,-30.44 a32.16,32.16 0 0 0 0,64.33 a31.63,31.63 0 0 0 18.21,-6 a2.43,2.43 0 0 0 1,-1.59 a1.59,1.59 0 0 0 -0.49000000000000005,-1.48 a2,2 0 0 0 -2.94,0.35000000000000003 c-1.17,1.54 -4.67,4.14 -15,4.38 a28,28 0 0 1 -28.79,-27.76 c-0.05000000000000001,-15.52 12.7,-27.78 28,-28 s27.69,10.66 27.69,25.8 c0,9.63 -6.71,14.1 -14.79,13.93 c-2.58,0.17 -3.1,-0.8600000000000001 -2.75,-4.47 c0.28,-3 3.12,-15.33 4.12,-19.65 a2.39,2.39 0 0 0 -2.41,-3 h-0.17 a2.38,2.38 0 0 0 -2.08,2.09 a18.18,18.18 0 0 0 -0.15000000000000002,2.1 a11,11 0 0 0 -9.46,-5.68 c-9.12,0.17 -17,8.43 -17.37,20.47 c0,8.08 4.3,12.73 11.7,12.73 a13.64,13.64 0 0 0 11,-6 S624.76,251.53999389648436 631,251.8799938964844 zm-16.34,-3.6100000000000003 c-4.640000000000001,0 -7.4,-3.44 -7.4,-8.94 c0,-9.46 6.36,-15.48 12.38,-15.48 c5.33,0 7.4,3.6100000000000003 7.57,8.43 C627.17,240.01999389648438 622.18,248.26999389648438 614.62,248.26999389648438 z" fill="#fbb814" id="svg_20" class="" fill-opacity="1"/><g opacity="0.5" id="svg_21" class="" fill-opacity="1" fill="#fbb814"><path d="M631.81,360.02999389648437 c15.16,0 22.19,-8.14 22.19,-19 c0,-19 -15.35,-32.73 -34.4,-32.73 a34.58,34.58 0 0 0 0,69.16 a34,34 0 0 0 19.57,-6.41 a2.6100000000000003,2.6100000000000003 0 0 0 1.07,-1.71 a1.71,1.71 0 0 0 -0.53,-1.59 a2.17,2.17 0 0 0 -3.16,0.37000000000000005 c-1.26,1.6500000000000001 -5,4.45 -16.14,4.7 a30.15,30.15 0 0 1 -31,-29.84 c-0.05000000000000001,-16.69 13.65,-29.87 30.14,-30.06 s29.77,11.47 29.77,27.74 c0,10.36 -7.21,15.16 -15.9,15 c-2.77,0.18000000000000002 -3.33,-0.92 -3,-4.8100000000000005 c0.30000000000000004,-3.19 3.35,-16.48 4.43,-21.13 a2.5700000000000003,2.5700000000000003 0 0 0 -2.59,-3.18 l-0.19000000000000003,0 a2.56,2.56 0 0 0 -2.24,2.25 a19.55,19.55 0 0 0 -0.16000000000000003,2.26 a11.88,11.88 0 0 0 -10.17,-6.1 c-9.8,0.18000000000000002 -18.31,9.06 -18.68,22 c0,8.69 4.62,13.68 12.57,13.68 A14.67,14.67 0 0 0 625.34,354.1499938964844 S625.15,359.65999389648437 631.81,360.02999389648437 zM614.24,356.1499938964844 c-5,0 -8,-3.7 -8,-9.620000000000001 c0,-10.17 6.84,-16.64 13.31,-16.64 c5.73,0 8,3.88 8.14,9.06 C627.74,347.2699938964844 622.38,356.1499938964844 614.24,356.1499938964844 z" fill="#fbb814" id="svg_22"/></g><path d="M631,358.8299938964843 c14.1,0 20.64,-7.57 20.64,-17.72 c0,-17.72 -14.28,-30.44 -32,-30.44 a32.16,32.16 0 0 0 0,64.33 a31.63,31.63 0 0 0 18.21,-6 a2.43,2.43 0 0 0 1,-1.59 a1.59,1.59 0 0 0 -0.49000000000000005,-1.48 a2,2 0 0 0 -2.94,0.35000000000000003 c-1.17,1.54 -4.67,4.14 -15,4.38 a28,28 0 0 1 -28.79,-27.76 c-0.05000000000000001,-15.52 12.7,-27.78 28,-28 s27.69,10.66 27.69,25.8 c0,9.63 -6.71,14.1 -14.79,13.93 c-2.58,0.17 -3.1,-0.8600000000000001 -2.75,-4.47 c0.28,-3 3.12,-15.33 4.12,-19.65 a2.39,2.39 0 0 0 -2.41,-3 h-0.17 a2.38,2.38 0 0 0 -2.08,2.09 a18.18,18.18 0 0 0 -0.15000000000000002,2.1 A11,11 0 0 0 619.6,326.1499938964844 c-9.12,0.17 -17,8.43 -17.37,20.47 c0,8.08 4.3,12.73 11.7,12.73 a13.64,13.64 0 0 0 11,-6 S624.76,358.4799938964844 631,358.8299938964843 zm-16.34,-3.6100000000000003 c-4.640000000000001,0 -7.4,-3.44 -7.4,-8.94 c0,-9.46 6.36,-15.48 12.38,-15.48 c5.33,0 7.4,3.6100000000000003 7.57,8.43 C627.17,346.9599938964843 622.18,355.2199938964844 614.62,355.2199938964844 z" fill="#fbb814" id="svg_23" class="" fill-opacity="1"/><g opacity="0.5" id="svg_24" class="" fill-opacity="1" fill="#fbb814"><path d="M783.64,417.7499938964844 c15.28,0 22.36,-8.2 22.36,-19.19 c0,-19.19 -15.47,-33 -34.66,-33 a34.85,34.85 0 0 0 0,69.7 a34.27,34.27 0 0 0 19.73,-6.46 a2.63,2.63 0 0 0 1.08,-1.73 a1.7200000000000002,1.7200000000000002 0 0 0 -0.54,-1.61 a2.19,2.19 0 0 0 -3.18,0.38000000000000006 c-1.27,1.6600000000000001 -5.06,4.49 -16.26,4.74 A30.39,30.39 0 0 1 741,400.5199938964844 c-0.06000000000000001,-16.82 13.76,-30.1 30.38,-30.29 s30,11.55 30,28 c0,10.44 -7.27,15.28 -16,15.09 c-2.8,0.19000000000000003 -3.35,-0.93 -3,-4.85 c0.31000000000000005,-3.21 3.38,-16.61 4.47,-21.29 a2.59,2.59 0 0 0 -2.6100000000000003,-3.2 l-0.19000000000000003,0 a2.58,2.58 0 0 0 -2.26,2.27 a19.7,19.7 0 0 0 -0.16000000000000003,2.27 a12,12 0 0 0 -10.25,-6.15 c-9.88,0.19000000000000003 -18.45,9.13 -18.82,22.18 c0,8.76 4.66,13.79 12.67,13.79 a14.78,14.78 0 0 0 11.93,-6.52 S776.93,417.3799938964844 783.64,417.7499938964844 zm-17.7,-3.91 c-5,0 -8,-3.73 -8,-9.69 c0,-10.25 6.9,-16.77 13.42,-16.77 c5.78,0 8,3.91 8.2,9.13 C779.54,404.8899938964844 774.13,413.83999389648443 765.93,413.83999389648443 z" fill="#fbb814" id="svg_25"/></g><path d="M782.69,416.40999389648437 c14.1,0 20.64,-7.57 20.64,-17.72 c0,-17.72 -14.28,-30.44 -32,-30.44 a32.16,32.16 0 0 0 0,64.33 a31.63,31.63 0 0 0 18.21,-6 a2.43,2.43 0 0 0 1,-1.59 a1.59,1.59 0 0 0 -0.49000000000000005,-1.48 a2,2 0 0 0 -2.94,0.35000000000000003 c-1.17,1.54 -4.67,4.14 -15,4.38 a28,28 0 0 1 -28.79,-27.76 c-0.05000000000000001,-15.52 12.7,-27.78 28,-28 S799,383.2199938964844 799,398.3499938964844 c0,9.63 -6.71,14.1 -14.79,13.93 c-2.58,0.17 -3.1,-0.8600000000000001 -2.75,-4.47 c0.28,-3 3.12,-15.33 4.12,-19.65 a2.39,2.39 0 0 0 -2.41,-3 H783 a2.38,2.38 0 0 0 -2.08,2.09 a18.18,18.18 0 0 0 -0.15000000000000002,2.1 a11,11 0 0 0 -9.46,-5.68 c-9.12,0.17 -17,8.43 -17.37,20.47 c0,8.08 4.3,12.73 11.7,12.73 a13.64,13.64 0 0 0 11,-6 S776.5,416.06999389648433 782.69,416.40999389648437 zm-16.34,-3.6100000000000003 c-4.640000000000001,0 -7.4,-3.44 -7.4,-8.94 c0,-9.46 6.36,-15.48 12.38,-15.48 c5.33,0 7.4,3.6100000000000003 7.57,8.43 C778.91,404.54999389648435 773.92,412.79999389648435 766.35,412.79999389648435 z" fill="#fbb814" id="svg_26" class="" fill-opacity="1"/><path d="M724.6,315.8699938964844 c10.07,0 14.74,-5.41 14.74,-12.65 c0,-12.65 -10.2,-21.75 -22.85,-21.75 a23,23 0 0 0 0,45.95 a22.59,22.59 0 0 0 13,-4.26 a1.73,1.73 0 0 0 0.7100000000000001,-1.1400000000000001 a1.13,1.13 0 0 0 -0.35000000000000003,-1.06 a1.44,1.44 0 0 0 -2.1,0.25 c-0.8300000000000001,1.1 -3.33,3 -10.72,3.13 a19.9,19.9 0 1 1 -0.54,-39.8 c10.93,-0.12000000000000001 19.78,7.62 19.78,18.43 c0,6.88 -4.79,10.07 -10.57,10 c-1.84,0.12000000000000001 -2.21,-0.6100000000000001 -2,-3.19 c0.2,-2.12 2.23,-10.95 2.94,-14 a1.71,1.71 0 0 0 -1.7200000000000002,-2.11 h-0.12000000000000001 a1.7000000000000002,1.7000000000000002 0 0 0 -1.49,1.49 a13,13 0 0 0 -0.1,1.5 a7.890000000000001,7.890000000000001 0 0 0 -6.76,-4.05 c-6.51,0.12000000000000001 -12.16,6 -12.41,14.620000000000001 c0,5.77 3.07,9.09 8.35,9.09 a9.74,9.74 0 0 0 7.86,-4.3 S720.18,315.6199938964844 724.6,315.8699938964844 zm-11.67,-2.58 c-3.3200000000000003,0 -5.28,-2.46 -5.28,-6.39 c0,-6.76 4.55,-11.06 8.85,-11.06 c3.81,0 5.28,2.58 5.41,6 C721.9,307.3899938964844 718.34,313.28999389648436 712.93,313.28999389648436 z" fill="#fbb814" opacity="0.5" id="svg_27" class="" fill-opacity="1"/><path d="M530.82,354.2599938964844 c10.07,0 14.74,-5.41 14.74,-12.65 c0,-12.65 -10.2,-21.75 -22.85,-21.75 a23,23 0 0 0 0,45.95 a22.59,22.59 0 0 0 13,-4.26 a1.73,1.73 0 0 0 0.7100000000000001,-1.1400000000000001 a1.13,1.13 0 0 0 -0.35000000000000003,-1.06 a1.44,1.44 0 0 0 -2.1,0.25 c-0.8300000000000001,1.1 -3.33,3 -10.72,3.13 a19.9,19.9 0 1 1 -0.54,-39.8 c10.93,-0.12000000000000001 19.78,7.62 19.78,18.43 c0,6.88 -4.79,10.07 -10.57,10 c-1.84,0.12000000000000001 -2.21,-0.6100000000000001 -2,-3.19 c0.2,-2.12 2.23,-10.95 2.94,-14 a1.71,1.71 0 0 0 -1.7200000000000002,-2.11 h-0.12000000000000001 a1.7000000000000002,1.7000000000000002 0 0 0 -1.49,1.49 a13,13 0 0 0 -0.1,1.5 a7.890000000000001,7.890000000000001 0 0 0 -6.76,-4.05 c-6.51,0.12000000000000001 -12.16,6 -12.41,14.620000000000001 c0,5.77 3.07,9.09 8.35,9.09 a9.74,9.74 0 0 0 7.86,-4.3 S526.4,354.0099938964844 530.82,354.2599938964844 zm-11.67,-2.58 c-3.3200000000000003,0 -5.28,-2.46 -5.28,-6.39 c0,-6.76 4.55,-11.06 8.85,-11.06 c3.81,0 5.28,2.58 5.41,6 C528.12,345.77999389648437 524.56,351.67999389648435 519.15,351.67999389648435 z" fill="#fbb814" opacity="0.5" id="svg_28" class="" fill-opacity="1"/><path d="M507.05999999999995,183.32999389648438 c10.07,0 14.74,-5.41 14.74,-12.65 c0,-12.65 -10.2,-21.75 -22.85,-21.75 a23,23 0 0 0 0,45.95 a22.59,22.59 0 0 0 13,-4.26 a1.73,1.73 0 0 0 0.7100000000000001,-1.1400000000000001 a1.13,1.13 0 0 0 -0.35000000000000003,-1.06 a1.44,1.44 0 0 0 -2.1,0.25 c-0.8300000000000001,1.1 -3.33,3 -10.72,3.13 a19.9,19.9 0 1 1 -0.54,-39.8 c10.93,-0.12000000000000001 19.78,7.62 19.78,18.43 c0,6.88 -4.79,10.07 -10.57,10 c-1.84,0.12000000000000001 -2.21,-0.6100000000000001 -2,-3.19 c0.2,-2.12 2.23,-10.95 2.94,-14 a1.71,1.71 0 0 0 -1.7200000000000002,-2.11 h-0.12000000000000001 a1.7000000000000002,1.7000000000000002 0 0 0 -1.49,1.49 a13,13 0 0 0 -0.1,1.5 a7.890000000000001,7.890000000000001 0 0 0 -6.76,-4.05 c-6.51,0.12000000000000001 -12.16,6 -12.41,14.620000000000001 c0,5.77 3.07,9.09 8.35,9.09 a9.74,9.74 0 0 0 7.86,-4.3 S502.64,183.07999389648438 507.05999999999995,183.32999389648438 zm-11.67,-2.58 c-3.3200000000000003,0 -5.28,-2.46 -5.28,-6.39 c0,-6.76 4.55,-11.06 8.85,-11.06 c3.81,0 5.28,2.58 5.41,6 C504.36,174.84999389648436 500.78999999999996,180.7499938964844 495.39,180.7499938964844 z" fill="#fbb814" opacity="0.5" id="svg_29" class="" fill-opacity="1"/><path d="M891,188.8099938964844 c10.07,0 14.74,-5.41 14.74,-12.65 c0,-12.65 -10.2,-21.75 -22.85,-21.75 a23,23 0 0 0 0,45.95 a22.59,22.59 0 0 0 13,-4.26 a1.73,1.73 0 0 0 0.7100000000000001,-1.1400000000000001 a1.13,1.13 0 0 0 -0.35000000000000003,-1.06 a1.44,1.44 0 0 0 -2.1,0.25 c-0.8300000000000001,1.1 -3.33,3 -10.72,3.13 a19.9,19.9 0 1 1 -0.54,-39.8 c10.93,-0.12000000000000001 19.78,7.62 19.78,18.43 c0,6.88 -4.79,10.07 -10.57,10 c-1.84,0.12000000000000001 -2.21,-0.6100000000000001 -2,-3.19 c0.2,-2.12 2.23,-10.95 2.94,-14 a1.71,1.71 0 0 0 -1.7200000000000002,-2.11 h-0.12000000000000001 a1.7000000000000002,1.7000000000000002 0 0 0 -1.49,1.49 a13,13 0 0 0 -0.1,1.5 a7.890000000000001,7.890000000000001 0 0 0 -6.76,-4.05 c-6.51,0.12000000000000001 -12.16,6 -12.41,14.620000000000001 c0,5.77 3.07,9.09 8.35,9.09 a9.74,9.74 0 0 0 7.86,-4.3 S886.54,188.5699938964844 891,188.8099938964844 zm-11.67,-2.58 c-3.3200000000000003,0 -5.28,-2.46 -5.28,-6.39 c0,-6.76 4.55,-11.06 8.85,-11.06 c3.81,0 5.28,2.58 5.41,6 C888.26,180.33999389648437 884.69,186.22999389648436 879.29,186.22999389648436 z" fill="#fbb814" opacity="0.5" id="svg_30" class="" fill-opacity="1"/><path d="M526.34,234.0599938964844 c5.640000000000001,0 8.26,-3 8.26,-7.09 c0,-7.09 -5.71,-12.18 -12.8,-12.18 a12.870000000000001,12.870000000000001 0 0 0 0,25.73 a12.65,12.65 0 0 0 7.28,-2.38 a1,1 0 0 0 0.4,-0.6400000000000001 a0.6300000000000001,0.6300000000000001 0 0 0 -0.2,-0.5900000000000001 a0.81,0.81 0 0 0 -1.18,0.14 c-0.47000000000000003,0.6100000000000001 -1.87,1.6600000000000001 -6,1.75 a11.15,11.15 0 1 1 -0.30000000000000004,-22.29 c6.12,-0.07 11.08,4.27 11.08,10.32 c0,3.85 -2.68,5.640000000000001 -5.92,5.57 c-1,0.07 -1.24,-0.3400000000000001 -1.1,-1.79 c0.11000000000000001,-1.19 1.25,-6.13 1.6500000000000001,-7.86 a1,1 0 0 0 -1,-1.18 h-0.07 a1,1 0 0 0 -0.8300000000000001,0.8400000000000001 a7.27,7.27 0 0 0 -0.06000000000000001,0.8400000000000001 a4.42,4.42 0 0 0 -3.7800000000000002,-2.27 c-3.6500000000000004,0.07 -6.8100000000000005,3.37 -6.95,8.19 c0,3.23 1.7200000000000002,5.09 4.68,5.09 a5.46,5.46 0 0 0 4.4,-2.41 A2.23,2.23 0 0 0 526.34,234.0599938964844 zm-6.54,-1.44 c-1.86,0 -3,-1.3800000000000001 -3,-3.58 c0,-3.7800000000000002 2.55,-6.19 5,-6.19 c2.13,0 3,1.44 3,3.37 C524.83,229.3099938964844 522.83,232.6199938964844 519.81,232.6199938964844 z" fill="#fbb814" opacity="0.3" id="svg_31" class="" fill-opacity="1"/><path d="M592.15,287.9899938964844 c5.640000000000001,0 8.26,-3 8.26,-7.09 c0,-7.09 -5.71,-12.18 -12.8,-12.18 a12.870000000000001,12.870000000000001 0 0 0 0,25.73 a12.65,12.65 0 0 0 7.28,-2.38 a1,1 0 0 0 0.4,-0.6400000000000001 a0.6300000000000001,0.6300000000000001 0 0 0 -0.2,-0.5900000000000001 a0.81,0.81 0 0 0 -1.18,0.14 c-0.47000000000000003,0.6100000000000001 -1.87,1.6600000000000001 -6,1.75 a11.15,11.15 0 1 1 -0.30000000000000004,-22.29 c6.12,-0.07 11.08,4.27 11.08,10.32 c0,3.85 -2.68,5.640000000000001 -5.92,5.57 c-1,0.07 -1.24,-0.3400000000000001 -1.1,-1.79 c0.11000000000000001,-1.19 1.25,-6.13 1.6500000000000001,-7.86 a1,1 0 0 0 -1,-1.18 h-0.07 a1,1 0 0 0 -0.8300000000000001,0.8400000000000001 a7.27,7.27 0 0 0 -0.06000000000000001,0.8400000000000001 a4.42,4.42 0 0 0 -3.7800000000000002,-2.27 c-3.6500000000000004,0.07 -6.8100000000000005,3.37 -6.95,8.19 c0,3.23 1.7200000000000002,5.09 4.68,5.09 a5.46,5.46 0 0 0 4.4,-2.41 A2.23,2.23 0 0 0 592.15,287.9899938964844 zm-6.54,-1.44 c-1.86,0 -3,-1.3800000000000001 -3,-3.58 c0,-3.7800000000000002 2.55,-6.19 5,-6.19 c2.13,0 3,1.44 3,3.37 C590.64,283.2399938964844 588.65,286.53999389648436 585.62,286.53999389648436 z" fill="#fbb814" opacity="0.3" id="svg_32" class="" fill-opacity="1"/><path d="M788.67,222.14999389648438 c5.640000000000001,0 8.26,-3 8.26,-7.09 c0,-7.09 -5.71,-12.18 -12.8,-12.18 a12.870000000000001,12.870000000000001 0 0 0 0,25.73 a12.65,12.65 0 0 0 7.28,-2.38 a1,1 0 0 0 0.4,-0.6400000000000001 a0.6300000000000001,0.6300000000000001 0 0 0 -0.2,-0.5900000000000001 a0.81,0.81 0 0 0 -1.18,0.14 c-0.47000000000000003,0.6100000000000001 -1.87,1.6600000000000001 -6,1.75 a11.15,11.15 0 1 1 -0.30000000000000004,-22.29 c6.12,-0.07 11.08,4.27 11.08,10.32 c0,3.85 -2.68,5.640000000000001 -5.92,5.57 c-1,0.07 -1.24,-0.3400000000000001 -1.1,-1.79 c0.11000000000000001,-1.19 1.25,-6.13 1.6500000000000001,-7.86 a1,1 0 0 0 -1,-1.18 h-0.07 a1,1 0 0 0 -0.8300000000000001,0.8400000000000001 a7.27,7.27 0 0 0 -0.06000000000000001,0.8400000000000001 a4.42,4.42 0 0 0 -3.7800000000000002,-2.27 c-3.6500000000000004,0.07 -6.8100000000000005,3.37 -6.95,8.19 c0,3.23 1.7200000000000002,5.09 4.68,5.09 a5.46,5.46 0 0 0 4.4,-2.41 A2.23,2.23 0 0 0 788.67,222.14999389648438 zm-6.54,-1.44 c-1.86,0 -3,-1.3800000000000001 -3,-3.58 c0,-3.7800000000000002 2.55,-6.19 5,-6.19 c2.13,0 3,1.44 3,3.37 C787.16,217.42999389648435 785.17,220.72999389648436 782.14,220.72999389648436 z" fill="#fbb814" opacity="0.3" id="svg_33" class="" fill-opacity="1"/><path d="M656.14,165.5099938964844 c5.640000000000001,0 8.26,-3 8.26,-7.09 c0,-7.09 -5.71,-12.18 -12.8,-12.18 a12.870000000000001,12.870000000000001 0 0 0 0,25.73 a12.65,12.65 0 0 0 7.28,-2.38 a1,1 0 0 0 0.4,-0.6400000000000001 a0.6300000000000001,0.6300000000000001 0 0 0 -0.2,-0.5900000000000001 a0.81,0.81 0 0 0 -1.18,0.14 c-0.47000000000000003,0.6100000000000001 -1.87,1.6600000000000001 -6,1.75 a11.15,11.15 0 1 1 -0.30000000000000004,-22.29 c6.12,-0.07 11.08,4.27 11.08,10.32 c0,3.85 -2.68,5.640000000000001 -5.92,5.57 c-1,0.07 -1.24,-0.3400000000000001 -1.1,-1.79 c0.11000000000000001,-1.19 1.25,-6.13 1.6500000000000001,-7.86 a1,1 0 0 0 -1,-1.18 h-0.07 a1,1 0 0 0 -0.8300000000000001,0.8400000000000001 a7.27,7.27 0 0 0 -0.06000000000000001,0.8400000000000001 a4.42,4.42 0 0 0 -3.7800000000000002,-2.27 c-3.6500000000000004,0.07 -6.8100000000000005,3.37 -6.95,8.19 c0,3.23 1.7200000000000002,5.09 4.68,5.09 a5.46,5.46 0 0 0 4.4,-2.41 A2.23,2.23 0 0 0 656.14,165.5099938964844 zm-6.54,-1.44 c-1.86,0 -3,-1.3800000000000001 -3,-3.58 c0,-3.7800000000000002 2.55,-6.19 5,-6.19 c2.13,0 3,1.44 3,3.37 C654.62,160.7599938964844 652.63,164.0599938964844 649.6,164.0599938964844 z" fill="#fbb814" opacity="0.3" id="svg_34" class="" fill-opacity="1"/><path d="M724.6,122.08999389648437 c10.07,0 14.74,-5.41 14.74,-12.65 c0,-12.65 -10.2,-21.75 -22.85,-21.75 a23,23 0 0 0 0,45.95 a22.59,22.59 0 0 0 13,-4.26 a1.73,1.73 0 0 0 0.7100000000000001,-1.1400000000000001 a1.13,1.13 0 0 0 -0.35000000000000003,-1.06 a1.44,1.44 0 0 0 -2.1,0.25 c-0.8300000000000001,1.1 -3.33,3 -10.72,3.13 a19.9,19.9 0 1 1 -0.54,-39.8 c10.93,-0.12000000000000001 19.78,7.62 19.78,18.43 c0,6.88 -4.79,10.07 -10.57,10 c-1.84,0.12000000000000001 -2.21,-0.6100000000000001 -2,-3.19 c0.2,-2.12 2.23,-10.95 2.94,-14 a1.71,1.71 0 0 0 -1.7200000000000002,-2.11 h-0.12000000000000001 a1.7000000000000002,1.7000000000000002 0 0 0 -1.49,1.49 a13,13 0 0 0 -0.1,1.5 a7.890000000000001,7.890000000000001 0 0 0 -6.76,-4.05 c-6.51,0.12000000000000001 -12.16,6 -12.41,14.620000000000001 c0,5.77 3.07,9.09 8.35,9.09 a9.74,9.74 0 0 0 7.86,-4.3 S720.18,121.83999389648437 724.6,122.08999389648437 zm-11.67,-2.58 c-3.3200000000000003,0 -5.28,-2.46 -5.28,-6.39 c0,-6.76 4.55,-11.06 8.85,-11.06 c3.81,0 5.28,2.58 5.41,6 C721.9,113.60999389648435 718.34,119.50999389648439 712.93,119.50999389648439 z" fill="#fbb814" opacity="0.5" id="svg_35" class="" fill-opacity="1"/><g opacity="0.5" id="svg_36" class="" fill-opacity="1" fill="#fbb814"><path d="M892.4000000000001,328.81999389648433 c31.16,0 45.6,-16.72 45.6,-39.14 c0,-39.14 -31.54,-67.27 -70.69,-67.27 s-70.69,31.92 -70.69,71.07 s31.54,71.07 70.69,71.07 a69.89,69.89 0 0 0 40.23,-13.17 a5.37,5.37 0 0 0 2.2,-3.52 a3.51,3.51 0 0 0 -1.09,-3.27 a4.46,4.46 0 0 0 -6.49,0.77 c-2.58,3.39 -10.31,9.15 -33.16,9.67 c-34.58,0.78 -63.51,-26.75 -63.62,-61.33 c-0.11000000000000001,-34.3 28.06,-61.39 61.95,-61.77 s61.19,23.56 61.19,57 c0,21.28 -14.82,31.16 -32.68,30.78 c-5.7,0.38000000000000006 -6.84,-1.9 -6.08,-9.88 c0.6200000000000001,-6.55 6.890000000000001,-33.87 9.11,-43.43 a5.29,5.29 0 0 0 -5.32,-6.53 l-0.38000000000000006,0 a5.27,5.27 0 0 0 -4.6,4.62 a40.18,40.18 0 0 0 -0.32000000000000006,4.63 c-3.42,-6.84 -11.4,-12.16 -20.9,-12.54 c-20.14,0.38000000000000006 -37.62,18.62 -38.38,45.22 c0,17.86 9.5,28.12 25.84,28.12 c11.4,0 19.76,-6.84 24.32,-13.3 C879.09,316.65999389648437 878.71,328.05999389648434 892.4000000000001,328.81999389648433 zm-36.1,-8 c-10.26,0 -16.34,-7.6 -16.34,-19.76 c0,-20.9 14.06,-34.2 27.36,-34.2 c11.78,0 16.34,8 16.72,18.62 C884,302.58999389648443 873,320.83999389648443 856.29,320.83999389648443 z" fill="#fbb814" id="svg_37"/></g><path d="M891.51,327.56999389648433 c30.06,0 44,-16.13 44,-37.76 c0,-37.76 -30.43,-64.89 -68.19,-64.89 s-68.19,30.79 -68.19,68.55 s30.43,68.55 68.19,68.55 a67.42,67.42 0 0 0 38.8,-12.7 a5.18,5.18 0 0 0 2.12,-3.4 a3.38,3.38 0 0 0 -1.05,-3.16 a4.3,4.3 0 0 0 -6.26,0.7400000000000001 c-2.49,3.27 -9.95,8.83 -32,9.33 c-33.36,0.7600000000000001 -61.26,-25.8 -61.37,-59.16 c-0.11000000000000001,-33.09 27.06,-59.22 59.76,-59.59 s59,22.73 59,55 c0,20.53 -14.3,30.06 -31.53,29.69 c-5.5,0.37000000000000005 -6.6,-1.83 -5.87,-9.53 c0.6000000000000001,-6.32 6.640000000000001,-32.67 8.78,-41.89 a5.1,5.1 0 0 0 -5.13,-6.29 l-0.37000000000000005,0 a5.08,5.08 0 0 0 -4.44,4.46 a38.75,38.75 0 0 0 -0.31000000000000005,4.47 c-3.3,-6.6 -11,-11.73 -20.16,-12.1 c-19.43,0.37000000000000005 -36.29,18 -37,43.63 c0,17.23 9.16,27.13 24.93,27.13 c11,0 19.06,-6.6 23.46,-12.83 C878.68,315.83999389648443 878.31,326.8299938964843 891.51,327.56999389648433 zm-34.83,-7.7 c-9.9,0 -15.76,-7.33 -15.76,-19.06 c0,-20.16 13.56,-33 26.4,-33 c11.36,0 15.76,7.7 16.13,18 C883.44,302.2699938964844 872.81,319.8699938964844 856.68,319.8699938964844 z" fill="#fbb814" id="svg_38" class="" fill-opacity="1"/><path d="M364.35,123.14999389648438 c0.8700000000000001,-4.23 6.45,-5.8100000000000005 10.56,-4.48 s7.3,4.52 11,6.8 s8.66,3.6 12.14,1 c3.34,-2.44 3.81,-7.28 6.45,-10.45 s7.54,-4.29 11.77,-3.58 s8.07,2.8600000000000003 11.81,5 L451,130.3699938964844 " fill="none" stroke="#535461" stroke-miterlimit="10" stroke-width="3" opacity="0.2" id="svg_39"/><path d="M356.35,148.14999389648438 c0.8700000000000001,-4.23 6.45,-5.8100000000000005 10.56,-4.48 s7.3,4.52 11,6.8 s8.66,3.6 12.14,1 c3.34,-2.44 3.81,-7.28 6.45,-10.45 s7.54,-4.29 11.77,-3.58 s8.07,2.8600000000000003 11.81,5 L443,155.3699938964844 " fill="none" stroke="#535461" stroke-miterlimit="10" stroke-width="3" opacity="0.2" id="svg_40"/><path d="M364.35,358.1499938964844 c0.8700000000000001,4.23 6.45,5.8100000000000005 10.56,4.48 s7.3,-4.52 11,-6.8 s8.66,-3.6 12.14,-1 c3.34,2.44 3.81,7.28 6.45,10.45 s7.54,4.29 11.77,3.58 s8.07,-2.8600000000000003 11.81,-5 L451,350.92999389648435 " fill="none" stroke="#535461" stroke-miterlimit="10" stroke-width="3" opacity="0.2" id="svg_41"/><path d="M356.35,333.1499938964844 c0.8700000000000001,4.23 6.45,5.8100000000000005 10.56,4.48 s7.3,-4.52 11,-6.8 s8.66,-3.6 12.14,-1 c3.34,2.44 3.81,7.28 6.45,10.45 s7.54,4.29 11.77,3.58 s8.07,-2.8600000000000003 11.81,-5 L443,325.92999389648435 " fill="none" stroke="#535461" stroke-miterlimit="10" stroke-width="3" opacity="0.2" id="svg_42"/><g opacity="0.7" id="svg_43" class=""><path d="M161.37,334.42999389648435 a5.86,5.86 0 0 0 -2.45,2.44 l-1.26,-1.4300000000000002 l0,0 c-0.18000000000000002,-1.55 -4,-33.52 -11.61,-33.7 c-5.83,-0.14 -12.14,-0.6300000000000001 -16.37,1 h0 l-0.22000000000000003,-0.6200000000000001 l-2.26,-6.35 l6,-2.13 l-0.09000000000000002,-0.25 l4.74,-1.6800000000000002 c0.6800000000000002,-1 -0.8,-0.9500000000000001 -2.37,-0.7000000000000001 a1.4300000000000002,1.4300000000000002 0 0 0 0.08000000000000002,-0.28 l2.75,-16.3 s0.7300000000000001,-3.49 -0.8800000000000001,-4.46 s-1.5,4.46 -1.5,4.46 l-3,11.19 s-8.620000000000001,-4.32 -13.78,-6.16 a7.43,7.43 0 0 0 -1.8900000000000001,-0.6000000000000001 c-0.91,-0.23 -1.55,-0.29000000000000004 -1.79,-0.1 h0 a7.41,7.41 0 0 0 -2,0.41000000000000003 l-0.5,0.18000000000000002 l-0.27,-0.77 l-0.09000000000000002,-0.25 a8.48,8.48 0 0 0 3.2800000000000002,-6.43 a9.53,9.53 0 0 0 -2.07,-8.07 a0.55,0.55 0 0 0 0.18000000000000002,-0.15000000000000002 a0.81,0.81 0 0 0 0,-0.81 a5.890000000000001,5.890000000000001 0 0 0 -4.36,-3.34 a6.29,6.29 0 0 1 -2.22,-0.49000000000000005 c-0.5700000000000001,-0.33000000000000007 -1,-0.93 -1.59,-1.1400000000000001 a2.5,2.5 0 0 0 -2.17,0.5800000000000001 a8.15,8.15 0 0 0 -1.83,1.82 a10.48,10.48 0 0 1 -1.8,2.31 c-0.55,0.43000000000000005 -1.23,0.6600000000000001 -1.79,1.08 a3.44,3.44 0 0 0 -1.36,2.7800000000000002 a4.49,4.49 0 0 0 0.39000000000000007,1.6500000000000001 a9.47,9.47 0 0 0 -0.17,2.35 l-0.11000000000000001,0.13 l0.11000000000000001,-0.11000000000000001 a9.52,9.52 0 0 0 5.78,8.25 a8.48,8.48 0 0 0 4.8,1.36 l0.09000000000000002,0.25 l0.35000000000000003,1 a10,10 0 0 0 -2.6100000000000003,2.34 h0 l-0.17,0.22000000000000003 l0,0 c-0.7000000000000001,1 -3,4.34 -2,6.77 q0,0.14 0.1,0.29000000000000004 a10.08,10.08 0 0 0 0.52,2.27 l5.66,15.94 l0.21000000000000002,0.5800000000000001 l0.5,1.4100000000000001 a9.35,9.35 0 0 0 3.83,4.79 c3.52,0.35000000000000003 11.08,2.66 11.81,2.36 l9.41,3.3200000000000003 l-5,23 s-2.8,4.36 0.54,4.3 a68.41,68.41 0 0 0 9.72,-1.49 s0.38000000000000006,-2.1 -1.26,-2.36 a5.86,5.86 0 0 0 -3.37,0.78 l-0.28,-1.58 s14.11,-24.66 7.75,-29.14 c-1.22,-0.8600000000000001 -2.45,-1.75 -3.68,-2.62 l3.3,-0.8400000000000001 l10.46,27.13 l0.08000000000000002,-0.06000000000000001 c0,0.6000000000000001 0.16000000000000003,5.12 2.7800000000000002,3.42 a68.41,68.41 0 0 0 7.46,-6.4 S162.89,333.78999389648436 161.37,334.42999389648435 zm-29,-42.78 l-6.6,0.39000000000000007 L124,286.91999389648436 l9,4.59 z" fill="url(#9cd64173-10f6-4cb0-8058-bf8fe6a2764b)" id="svg_44"/></g><circle cx="-47.67999267578125" cy="380.739990234375" r="9.3100004196167" transform="rotate(-19.559999465942383 -289.61999511718756,-122.79000091552737) " id="svg_45"/><path d="M124.07,287.2399938964844 l9.22,4.73 a1.3900000000000001,1.3900000000000001 0 0 0 2,-1 L138,275.0199938964844 h-2.33 l-3,10.94 s-16.6,-7.4 -18,-6.24 S124.07,287.2399938964844 124.07,287.2399938964844 z" fill="#fbb814" id="svg_46" class="" fill-opacity="1"/><path d="M119.24000000000001,345.4899938964844 " fill="none" stroke="#bdbdbd" stroke-miterlimit="10" stroke-width="5" id="svg_47"/><path d="M120,316.3999938964844 " fill="none" stroke="#bdbdbd" stroke-miterlimit="10" stroke-width="5" id="svg_48"/><path d="M116.80567283391952,279.6582319617271 h0 a8.77,8.77 0 0 1 8.77,8.77 v17.61 a0,0 0 0 1 0,0 H104.89567283391952 a0,0 0 0 1 0,0 V291.57823196172717 A11.92,11.92 0 0 1 116.80567283391952,279.6582319617271 z" transform="rotate(-19.559999465942383 115.23566436767587,292.8482360839844) " fill="#fbb814" id="svg_49" class="" fill-opacity="1"/><path d="M133.12,312.69999389648433 l-8.89,3.16 a11.25,11.25 0 0 1 -14.37,-6.83 h0 L129.35000000000002,302.1499938964844 z" fill="#39447a" id="svg_50" class="" fill-opacity="1"/><path d="M105.94,292.30999389648434 l13.9,6.18 L133,293.80999389648434 l-0.6100000000000001,-1.71 l-12.5,0.7400000000000001 l-11.06,-6.76 c-1.7600000000000002,-1.08 -2.1,1.1400000000000001 -2.8200000000000003,3.07 h0 C105.36000000000001,290.92999389648435 104.21000000000001,291.53999389648436 105.94,292.30999389648434 z" opacity="0.05" id="svg_51" class=""/><path d="M105.69999999999999,291.9899938964844 l14.05,6.25 l13.16,-4.68 l-0.6100000000000001,-1.71 l-12.5,0.7400000000000001 l-10.91,-6.67 c-1.8800000000000001,-1.15 -2.19,1.13 -2.89,3.22 h0 C105.47,290.79999389648435 104.11000000000001,291.28999389648436 105.69999999999999,291.9899938964844 z" fill="#fbb814" id="svg_52" class="" fill-opacity="1"/><path d="M132.3,291.8599938964844 s6.51,-1.7600000000000002 5.24,0.06000000000000001 l-4.63,1.6500000000000001 z" fill="#fda57d" id="svg_53" class=""/><path d="M135.64999999999998,275.02999389648437 s-0.1,-5.3100000000000005 1.47,-4.36 s0.8600000000000001,4.36 0.8600000000000001,4.36 z" fill="#fda57d" id="svg_54" class=""/><polygon points="109.86 309.03 110.06 309.6 129.57 302.71 129.35 302.1 109.86 309.03" opacity="0.05" id="svg_55" class=""/><path d="M129,314.91999389648436 l13.54,-3.46 l10.23,26.52 l4.15,-3.2 s-3.7600000000000002,-32.83 -11.36,-33 s-16,-1 -19.38,3.31 S129,314.91999389648436 129,314.91999389648436 z" fill="#39447a" id="svg_56" class="" fill-opacity="1"/><path d="M126.89999999999998,306.3999938964844 s8.49,1.1 10.93,4.9 " opacity="0.1" id="svg_57" class=""/><path d="M121.87,316.55999389648434 L135,321.2099938964843 l-4.92,22.47 l5.23,-0.35000000000000003 s13.8,-24.11 7.58,-28.49 s-12.79,-9.73 -17.95,-8 S121.87,316.55999389648434 121.87,316.55999389648434 z" fill="#39447a" id="svg_58" class="" fill-opacity="1"/><polygon points="128.38 283.92 132.5 287.4 132.68 285.96 128.38 283.92" opacity="0.05" id="svg_59" class=""/><path d="M130.13,343.67999389648435 s-2.74,4.27 0.53,4.2 a66.9,66.9 0 0 0 9.5,-1.45 s0.37000000000000005,-2.05 -1.23,-2.31 a5.73,5.73 0 0 0 -3.3,0.7600000000000001 l-0.28,-1.55 z" fill="#333" id="svg_60"/><path d="M152.87,337.8499938964844 s0,5.19 2.72,3.41 a66.9,66.9 0 0 0 7.29,-6.26 s-0.77,-1.94 -2.27,-1.31 a5.73,5.73 0 0 0 -2.4,2.39 l-1.24,-1.4 z" fill="#333" id="svg_61"/><rect x="-49.600006103515625" y="388.0400085449219" width="5.170000076293945" height="7.760000228881836" rx="2.5899999141693115" ry="2.5899999141693115" transform="rotate(-19.559999465942383 -292.5700073242188,-121.0299987792968) " fill="#fda57d" id="svg_62"/><path d="M109.35,276.6899938964844 a2.59,2.59 0 0 0 -1.57,3.3 l0.29000000000000004,0.8300000000000001 a8.28,8.28 0 0 0 4.87,-1.73 l-0.29000000000000004,-0.8300000000000001 A2.59,2.59 0 0 0 109.35,276.6899938964844 z" opacity="0.05" id="svg_63" class=""/><circle cx="-47.33000183105469" cy="382.739990234375" r="8.279999732971191" transform="rotate(-19.559999465942383 -290.11999511718756,-122.41000366210939) " fill="#fda57d" id="svg_64"/><path d="M99.86000000000001,274.71999389648437 a2.9,2.9 0 0 0 2.44,-2.8 c0.31000000000000005,-2.6100000000000003 0.7300000000000001,-4.12 5.71,-4.41 s5.94,-0.46 5.71,-1.77 c-0.15000000000000002,-0.9 -2.49,-2.38 -3.95,-3.23 a3.06,3.06 0 0 0 -2.54,-0.17 L102.15,264.1499938964844 l-2.55,2.49 l-1.6,2.84 l0.48000000000000004,2.89 z" opacity="0.05" id="svg_65" class=""/><path d="M99.78,274.47999389648436 a2.9,2.9 0 0 0 2.44,-2.8 c0.31000000000000005,-2.6100000000000003 0.7300000000000001,-4.12 5.71,-4.41 s5.94,-0.46 5.71,-1.77 c-0.15000000000000002,-0.9 -2.49,-2.38 -3.95,-3.23 a3.06,3.06 0 0 0 -2.54,-0.17 l-5.09,1.81 l-2.55,2.49 l-1.6,2.84 l0.48000000000000004,2.89 z" id="svg_66" class=""/><ellipse cx="-55.600006103515625" cy="382.30999755859375" rx="0.8399999737739563" ry="1.6799999475479126" transform="rotate(-19.559999465942383 -291.16000366210943,-124.72000122070305) " fill="#fda57d" id="svg_67"/><path d="M98.55000000000001,270.3099938964844 a6.66,6.66 0 0 1 -1.12,-3.06 a3.36,3.36 0 0 1 1.33,-2.71 c0.55,-0.41000000000000003 1.21,-0.6400000000000001 1.75,-1.06 a10.25,10.25 0 0 0 1.7600000000000002,-2.26 a8,8 0 0 1 1.79,-1.78 a2.45,2.45 0 0 1 2.13,-0.56 c0.6100000000000001,0.21000000000000002 1,0.79 1.56,1.12 a6.15,6.15 0 0 0 2.17,0.47000000000000003 a5.76,5.76 0 0 1 4.26,3.26 a0.79,0.79 0 0 1 0,0.79 a0.8400000000000001,0.8400000000000001 0 0 1 -0.42000000000000004,0.24000000000000002 c-3.13,1.06 -6.27,2.13 -9.47,2.94 a23.78,23.78 0 0 0 -3,0.8700000000000001 a10.07,10.07 0 0 0 -3.84,2.72 " id="svg_68" class=""/></g></svg>