<svg xmlns="http://www.w3.org/2000/svg" xmlns:xlink="http://www.w3.org/1999/xlink" data-name="Layer 1" width="942" height="745.5999755859375"><rect id="backgroundrect" width="100%" height="100%" x="0" y="0" fill="none" stroke="none"/><defs><linearGradient id="19dcf708-dd5c-44ad-a611-182aebfaf3c5" x1="0.4999850392341614" y1="1" x2="0.4999850392341614" y2="0"><stop offset="0" stop-color="gray" stop-opacity="0.25"/><stop offset="0.54" stop-color="gray" stop-opacity="0.12"/><stop offset="1" stop-color="gray" stop-opacity="0.1"/></linearGradient><linearGradient id="fbcf3902-941f-4a87-a568-e80fc50a1800" x1="425.0199890136719" y1="459.7799987792969" x2="425.0199890136719" y2="162.72000122070312" xlink:href="#19dcf708-dd5c-44ad-a611-182aebfaf3c5"/><linearGradient id="34819b51-4aee-4e46-acb4-23489a509fb6" x1="600" y1="824.3599853515625" x2="600" y2="334.8699951171875" xlink:href="#19dcf708-dd5c-44ad-a611-182aebfaf3c5"/><linearGradient id="cc414fb6-c720-43be-8b52-f04b3df2ea53" x1="617.5900268554688" y1="479.82000732421875" x2="617.5900268554688" y2="137.0500030517578" xlink:href="#19dcf708-dd5c-44ad-a611-182aebfaf3c5"/></defs><title>fast loading</title><g class="currentLayer" style=""><title>Layer 1</title><g opacity="0.5" id="svg_1"><rect x="52.31999969482422" width="334.3299865722656" height="505.3800048828125" rx="4.5" ry="4.5" fill="url(#19dcf708-dd5c-44ad-a611-182aebfaf3c5)" id="svg_2"/></g><rect x="56.599998474121094" y="3.7100000381469727" width="325.760009765625" height="495.1600036621094" rx="4.5" ry="4.5" fill="#f2f2f2" id="svg_3"/><g opacity="0.5" id="svg_4"><rect x="89.18000030517578" y="94.93000030517578" width="65.1500015258789" height="58.63999938964844" rx="4.5" ry="4.5" fill="#31ef9d" id="svg_5"/></g><rect x="173.8800048828125" y="94.93000030517578" width="175.91000366210938" height="6.519999980926514" rx="2.819999933242798" ry="2.819999933242798" fill="#e0e0e0" id="svg_6"/><rect x="173.8800048828125" y="114.47000122070312" width="146.22999572753906" height="6.519999980926514" rx="2.819999933242798" ry="2.819999933242798" fill="#e0e0e0" id="svg_7"/><g opacity="0.5" id="svg_8"><rect x="89.18000030517578" y="186.13999938964844" width="65.1500015258789" height="58.63999938964844" rx="4.5" ry="4.5" fill="#31ef9d" id="svg_9"/></g><rect x="173.8800048828125" y="186.13999938964844" width="175.91000366210938" height="6.519999980926514" rx="2.819999933242798" ry="2.819999933242798" fill="#e0e0e0" id="svg_10"/><rect x="173.8800048828125" y="205.67999267578125" width="175.91000366210938" height="6.519999980926514" rx="2.819999933242798" ry="2.819999933242798" fill="#e0e0e0" id="svg_11"/><g opacity="0.5" id="svg_12"><rect x="89.18000030517578" y="277.3500061035156" width="65.1500015258789" height="58.63999938964844" rx="4.5" ry="4.5" fill="#31ef9d" id="svg_13"/></g><rect x="173.8800048828125" y="277.3500061035156" width="175.91000366210938" height="6.519999980926514" rx="2.819999933242798" ry="2.819999933242798" fill="#e0e0e0" id="svg_14"/><rect x="173.8800048828125" y="296.8999938964844" width="19.549999237060547" height="6.519999980926514" rx="2.819999933242798" ry="2.819999933242798" fill="#e0e0e0" id="svg_15"/><g opacity="0.5" id="svg_16"><rect x="260.3599853515625" y="162.72000122070312" width="329.32000732421875" height="297.05999755859375" rx="4.5" ry="4.5" fill="url(#fbcf3902-941f-4a87-a568-e80fc50a1800)" id="svg_17"/></g><rect x="265.45001220703125" y="165.6999969482422" width="319.70001220703125" height="287.7300109863281" rx="4.5" ry="4.5" fill="#fff" id="svg_18"/><g opacity="0.5" id="svg_19"><rect x="296.8399963378906" y="227.52000427246094" width="68.69000244140625" height="61.81999969482422" rx="4.5" ry="4.5" fill="#31ef9d" id="svg_20"/></g><rect x="386.1400146484375" y="227.52000427246094" width="185.4600067138672" height="6.869999885559082" rx="2.9800000190734863" ry="2.9800000190734863" fill="#e0e0e0" id="svg_21"/><rect x="386.1400146484375" y="248.1300048828125" width="185.4600067138672" height="6.869999885559082" rx="2.9800000190734863" ry="2.9800000190734863" fill="#e0e0e0" id="svg_22"/><rect x="289.9700012207031" y="322.9200134277344" width="281.6300048828125" height="6.869999885559082" rx="2.9800000190734863" ry="2.9800000190734863" fill="#e0e0e0" id="svg_23"/><rect x="289.9700012207031" y="343.5299987792969" width="281.6300048828125" height="6.869999885559082" rx="2.9800000190734863" ry="2.9800000190734863" fill="#e0e0e0" id="svg_24"/><rect x="289.9700012207031" y="371" width="281.6300048828125" height="6.869999885559082" rx="2.9800000190734863" ry="2.9800000190734863" fill="#e0e0e0" id="svg_25"/><rect x="289.9700012207031" y="391.6099853515625" width="212.94000244140625" height="6.869999885559082" rx="2.9800000190734863" ry="2.9800000190734863" fill="#e0e0e0" id="svg_26"/><g opacity="0.5" id="svg_27"><path d="M597.64,273.8799978637695 h0 l1.17,-5.22 l-1.6400000000000001,5.1 a510.06,510.06 0 0 0 -130.8,-17.64 C148.05,254.23999786376953 0,535.5699978637696 0,535.5699978637696 L301.66,694.7299978637695 s37,-114.74 168.41,-111 a226.18,226.18 0 0 1 27,2.36 L457.09000000000003,710.6199978637695 a22.2,22.2 0 1 0 37.07,24.4 h0 l0,-0.06000000000000001 a22.07,22.07 0 0 0 3.27,-11.2 c0,-0.6700000000000002 0,-1.34 -0.07,-2 l28.9,-129.14 c86.1,26.48 112.19,102.1 112.19,102.1 L942,542.9699978637695 S828,336.4399978637695 597.64,273.8799978637695 z" fill="url(#34819b51-4aee-4e46-acb4-23489a509fb6)" id="svg_28"/></g><path d="M466.42999999999995,259.23999786376953 C152.17000000000002,257.40999786376955 6,535.1299978637695 6,535.1299978637695 L303.82,692.2399978637695 s36.54,-113.28 166.27,-109.63 a223.22,223.22 0 0 1 27.29,2.42 L596,276.77999786376955 A503.55,503.55 0 0 0 466.42999999999995,259.23999786376953 z" fill="#31ef9d" id="svg_29"/><path d="M596,276.77999786376955 L497.38,585.0599978637696 C605,601.4099978637695 636.35,692.2399978637695 636.35,692.2399978637695 L936,542.4399978637696 S823.41,338.53999786376954 596,276.77999786376955 z" fill="#e0e0e0" id="svg_30"/><path d="M497.05999999999995,718.9499978637696 L597.18,271.6199978637695 L457.26,707.9499978637696 a21.92,21.92 0 1 0 36.59,24.09 h0 v-0.06000000000000001 a21.79,21.79 0 0 0 3.23,-11.05 C497.14,720.2399978637695 497.11,719.5999978637695 497.05999999999995,718.9499978637696 z" fill="#535461" id="svg_31"/><g opacity="0.7" id="svg_32"><path d="M533.25,258.70999786376956 l-2.62,-0.49000000000000005 l5.17,-19 c8.14,-61 -22.61,-67.19 -34.14,-67.4 a37.91,37.91 0 0 0 -4.05,-1.23 v-7.2 a38.22,38.22 0 0 0 28.55,-30.86 h0.1 c1.83,0 3.3200000000000003,-2.79 3.3200000000000003,-6.23 a8.64,8.64 0 0 0 -1.45,-5.14 q0.2,-2 0.2,-4 A39.72,39.72 0 0 0 516,88.36999786376953 a25.6,25.6 0 0 0 -2.8200000000000003,-7.58 c-2.83,-5 -7.54,-10.18 -5.62,-15.59 l-12.43,1.28 l-0.12000000000000001,-8.19 c-3.88,0.7000000000000001 -5.51,5.19 -7.8100000000000005,8.39 c-5.54,7.7 -16.65,8.77 -24,14.77 c-2.5,2 -8.12,8.24 -7.05,12.31 a39.66,39.66 0 0 0 -7.58,23.37 q0,2 0.2,4 a8.64,8.64 0 0 0 -1.45,5.14 c0,3.44 1.49,6.23 3.3200000000000003,6.23 h0.1 a38.22,38.22 0 0 0 28.55,30.86 v7.2 a37.91,37.91 0 0 0 -4.05,1.23 c-11.53,0.21000000000000002 -42.28,6.36 -34.14,67.4 l5.17,19 l-1.23,0.23 a14.17,14.17 0 0 0 -11.33,16.53 L454.14,384.1399978637695 a4.29,4.29 0 0 0 5,3.43 l3.59,-0.6700000000000002 v2.12 a11.92,11.92 0 0 0 -6.640000000000001,10.68 v1.35 h24.08 v-1.35 a11.92,11.92 0 0 0 -5.8100000000000005,-10.23 v-4.75 l3.2800000000000002,-0.6100000000000001 a4.29,4.29 0 0 0 3.43,-5 L461.92999999999995,276.52999786376955 H515 L495.88,379.1199978637695 a4.29,4.29 0 0 0 3.43,5 l3.2800000000000002,0.6100000000000001 v4.75 a11.92,11.92 0 0 0 -5.8100000000000005,10.23 v1.35 h24.08 v-1.35 a11.92,11.92 0 0 0 -6.640000000000001,-10.68 v-2.12 l3.59,0.6700000000000002 a4.29,4.29 0 0 0 5,-3.43 l20.64,-110.56 A12.75,12.75 0 0 0 533.25,258.70999786376956 z" fill="url(#cc414fb6-c720-43be-8b52-f04b3df2ea53)" id="svg_33"/></g><rect x="463.7200012207031" y="373" width="11.180000305175781" height="15.180000305175781" fill="#fdb797" id="svg_34"/><rect x="502.05999755859375" y="373" width="11.180000305175781" height="15.180000305175781" fill="#fdb797" id="svg_35"/><rect x="451.739990234375" y="248.39999389648438" width="73.48999786376953" height="26.360000610351562" fill="#28324a" id="svg_36" class="" fill-opacity="1"/><g opacity="0.05" id="svg_37" class="" fill-opacity="1" fill="#28324a" stroke-opacity="1" stroke="#28324a" transform="rotate(0.12418682873249054 488.484985351593,261.57998657226597) "><rect x="451.739990234375" y="248.39999389648438" width="73.48999786376953" height="26.360000610351562" id="svg_38" fill="#28324a" stroke="#28324a"/></g><path d="M451.74,253.18999786376952 s27.42,6.39 36.74,6.39 s36.74,-6.39 36.74,-6.39 v-4 H451.74 z" opacity="0.1" id="svg_39"/><path d="M525.22,252.3899978637695 s-27.42,6.39 -36.74,6.39 s-36.74,-6.39 -36.74,-6.39 V208.45999786376956 a36.74,36.74 0 0 1 36.74,-36.74 h0 a36.74,36.74 0 0 1 36.74,36.74 z" fill="#fcb917" id="svg_40" class="" fill-opacity="1"/><path d="M479.7,153.34h17.57a0,0,0,0,1,0,0v21.14a7.61,7.61,0,0,1-7.61,7.61h-2.34a7.61,7.61,0,0,1-7.61-7.61V153.34A0,0,0,0,1,479.7,153.34Z" fill="#fdb797" id="svg_41"/><path d="M477,378.45999786376956 l-15.75,2.94 a5.17,5.17 0 0 1 -6,-4.13 L436.47,276.6299978637695 a17.06,17.06 0 0 1 13.64,-19.91 l4.06,-0.7600000000000001 a5.17,5.17 0 0 1 6,4.13 l21,112.33 A5.17,5.17 0 0 1 477,378.45999786376956 z" fill="#28324a" id="svg_42" class="" fill-opacity="1"/><path d="M499.91999999999996,378.45999786376956 l15.75,2.94 a5.17,5.17 0 0 0 6,-4.13 l19.1,-102.32 a15.36,15.36 0 0 0 -12.28,-17.91 l-5.74,-1.07 a5.17,5.17 0 0 0 -6,4.13 l-21,112.33 A5.17,5.17 0 0 0 499.91999999999996,378.45999786376956 z" fill="#28324a" id="svg_43" class="" fill-opacity="1"/><path d="M479.70000000000005,166.65999786376952 a36.77,36.77 0 0 0 17.57,0 V154.13999786376954 H479.70000000000005 z" opacity="0.1" id="svg_44"/><circle cx="488.4800109863281" cy="121.38999938964844" r="38.34000015258789" fill="#333" id="svg_45"/><circle cx="488.4800109863281" cy="130.17999267578125" r="36.7400016784668" fill="#fdb797" id="svg_46"/><path d="M464.22,87.05999786376952 c7.07,-5.77 17.76,-6.8 23.08,-14.21 c2.21,-3.08 3.7800000000000002,-7.41 7.51,-8.08 l0.11000000000000001,7.88 l12,-1.23 c-1.85,5.2 2.68,10.2 5.41,15 a24.66,24.66 0 0 1 3.19,11.61 c-4.15,2.49 -9.3,-0.23 -13.92,-1.6800000000000002 s-9.27,-1.56 -14,-1.6900000000000002 a29.05,29.05 0 0 0 -7.22,0.4 a36.41,36.41 0 0 0 -6,2.19 c-3.18,1.33 -13.23,6.36 -16.18,3.12 C454.88,96.69999786376954 461.49,89.28999786376954 464.22,87.05999786376952 z" fill="#333" id="svg_47"/><path d="M466.22,111.74999786376952 a16.85,16.85 0 0 0 6.5,2 a57.24,57.24 0 0 0 27.89,-3.13 c1.46,3.6900000000000004 5,6.23 8.79,7.43 s7.8100000000000005,1.26 11.78,1.32 a4.36,4.36 0 0 0 2.5300000000000002,-0.48000000000000004 c1.77,-1.19 0.91,-3.93 -0.12000000000000001,-5.79 l-5.12,-9.28 c-1.51,-2.74 -3.07,-5.54 -5.41,-7.61 c-2.94,-2.6 -6.84,-3.8200000000000003 -10.68,-4.59 a60.24,60.24 0 0 0 -27.42,0.91 C465.39,95.05999786376952 453.1,103.80999786376952 466.22,111.74999786376952 z" opacity="0.1" id="svg_48"/><path d="M466.22,110.94999786376954 a16.85,16.85 0 0 0 6.5,2 a57.24,57.24 0 0 0 27.89,-3.13 c1.46,3.6900000000000004 5,6.23 8.79,7.43 s7.8100000000000005,1.26 11.78,1.32 a4.36,4.36 0 0 0 2.5300000000000002,-0.48000000000000004 c1.77,-1.19 0.91,-3.93 -0.12000000000000001,-5.79 l-5.12,-9.28 c-1.51,-2.74 -3.07,-5.54 -5.41,-7.61 c-2.94,-2.6 -6.84,-3.8200000000000003 -10.68,-4.59 a60.24,60.24 0 0 0 -27.42,0.91 C465.39,94.23999786376953 453.1,103.01999786376953 466.22,110.94999786376954 z" fill="#333" id="svg_49"/><ellipse cx="524.8300170898438" cy="130.17999267578125" rx="3.200000047683716" ry="5.989999771118164" fill="#fdb797" id="svg_50"/><ellipse cx="452.1400146484375" cy="130.17999267578125" rx="3.200000047683716" ry="5.989999771118164" fill="#fdb797" id="svg_51"/><path d="M479.84000000000003,174.15999786376952 s-46.48,-7.24 -36.89,64.65 l5.59,20.61 l16,-0.6400000000000001 s-10.38,-24 -4,-39.94 S479.84000000000003,174.15999786376952 479.84000000000003,174.15999786376952 z" fill="#fcb917" id="svg_52" class="" fill-opacity="1"/><path d="M497.12,174.15999786376952 s46.48,-7.24 36.89,64.65 l-5.59,20.61 l-16,-0.6400000000000001 s10.38,-24 4,-39.94 S497.12,174.15999786376952 497.12,174.15999786376952 z" fill="#fcb917" id="svg_53" class="" fill-opacity="1"/><circle cx="457.3299865722656" cy="261.9700012207031" r="8.789999961853027" fill="#fdb797" id="svg_54"/><circle cx="521.22998046875" cy="261.9700012207031" r="8.789999961853027" fill="#fdb797" id="svg_55"/><path d="M467.37,381.79h3.09a10,10,0,0,1,10,10v2.74a0,0,0,0,1,0,0H457.33a0,0,0,0,1,0,0v-2.74A10,10,0,0,1,467.37,381.79Z" fill="#333" id="svg_56"/><path d="M506.51,381.79h3.09a10,10,0,0,1,10,10v2.74a0,0,0,0,1,0,0H496.47a0,0,0,0,1,0,0v-2.74A10,10,0,0,1,506.51,381.79Z" fill="#333" id="svg_57"/><path d="M459.73,212.4499978637695 s-3.2,16.77 2.4,24 " opacity="0.1" id="svg_58"/><path d="M517.24,212.4499978637695 s3.2,16.77 -2.4,24 " opacity="0.1" id="svg_59"/></g></svg>